<?xml version="1.0" standalone="no"?>
<!DOCTYPE svg PUBLIC "-//W3C//DTD SVG 20010904//EN"
 "http://www.w3.org/TR/2001/REC-SVG-20010904/DTD/svg10.dtd">
<svg version="1.0" xmlns="http://www.w3.org/2000/svg"
 width="512.000000pt" height="512.000000pt" viewBox="0 0 512.000000 512.000000"
 preserveAspectRatio="xMidYMid meet">
<metadata>
Created by potrace 1.14, written by Peter Selinger 2001-2017
</metadata>
<g transform="translate(0.000000,512.000000) scale(0.100000,-0.100000)"
fill="#000000" stroke="none">
<path d="M2770 5063 c-55 -148 -65 -214 -65 -448 0 -190 3 -235 23 -333 33
-164 71 -303 162 -602 174 -567 219 -790 227 -1116 6 -222 -3 -344 -38 -514
-77 -377 -268 -776 -546 -1142 -24 -31 -43 -60 -43 -64 0 -15 131 120 215 221
265 321 442 685 529 1089 37 172 77 287 127 370 17 26 28 51 25 54 -3 3 -7 3
-9 1 -1 -2 -24 -28 -51 -57 -47 -52 -48 -53 -41 -21 4 18 7 130 7 248 0 214
-17 408 -48 571 -24 129 -14 304 26 431 10 33 15 59 11 59 -4 0 -28 -43 -54
-97 -26 -53 -48 -90 -51 -82 -43 148 -130 392 -188 529 -155 363 -205 571
-196 826 3 74 3 134 2 134 -1 0 -12 -26 -24 -57z"/>
<path d="M2434 4193 c-383 -417 -590 -843 -681 -1408 -15 -89 -18 -169 -18
-420 1 -271 3 -328 23 -455 29 -182 71 -368 123 -540 38 -128 65 -197 197
-520 125 -305 176 -577 149 -800 l-7 -55 21 44 c59 124 93 370 79 572 -15 215
-53 384 -176 786 -110 361 -151 510 -183 667 -50 243 -56 305 -56 571 0 270
13 373 71 580 88 316 261 661 482 958 39 53 72 99 72 102 0 16 -24 -5 -96 -82z"/>
<path d="M2479 2487 c-7 -15 -17 -27 -23 -27 -6 0 -18 -4 -26 -10 -12 -7 -12
-12 4 -29 12 -13 17 -30 14 -46 -5 -21 -2 -25 11 -19 21 10 52 9 74 -1 16 -6
17 -4 11 19 -5 21 -1 33 16 51 l23 25 -31 6 c-18 4 -32 10 -32 13 0 4 -6 16
-14 26 -14 19 -15 19 -27 -8z"/>
</g>
</svg>
