<?xml version="1.0" standalone="no"?>
<!DOCTYPE svg PUBLIC "-//W3C//DTD SVG 1.1//EN" "http://www.w3.org/Graphics/SVG/1.1/DTD/svg11.dtd" >
<svg xmlns="http://www.w3.org/2000/svg" xmlns:xlink="http://www.w3.org/1999/xlink" version="1.1">
<metadata>
Created by FontForge 20200427 at Thu Feb 11 22:41:38 1999
 By www
Typeface: Copyright (c)1995 International Typeface Corporation. Data: Copyright (c) 1995 Microsoft Corportation. All rights reserved.
</metadata>
<defs>
<font id="ErasITC-Bold" horiz-adv-x="1334" >
  <font-face 
    font-family="Eras Bold ITC"
    font-weight="400"
    font-stretch="normal"
    units-per-em="2048"
    panose-1="2 11 9 7 3 5 4 2 2 4"
    ascent="1638"
    descent="-410"
    x-height="1021"
    cap-height="1365"
    bbox="-346 -512 2650 1859"
    underline-thickness="175"
    underline-position="-241"
    unicode-range="U+0020-F002"
  />
<missing-glyph horiz-adv-x="2048" 
d="M256 0v1536h1536v-1536h-1536zM384 128h1280v1280h-1280v-1280z" />
    <glyph glyph-name=".notdef" horiz-adv-x="2048" 
d="M256 0v1536h1536v-1536h-1536zM384 128h1280v1280h-1280v-1280z" />
    <glyph glyph-name="glyph1" horiz-adv-x="0" 
 />
    <glyph glyph-name="glyph2" horiz-adv-x="512" 
 />
    <glyph glyph-name="space" unicode=" " horiz-adv-x="512" 
 />
    <glyph glyph-name="exclam" unicode="!" horiz-adv-x="727" 
d="M176 510q15 352 24 855q127 -2 211 -2q67 0 200 2q-20 -184 -67 -855q-102 2 -164 2q-91 0 -204 -2zM129 0q8 93 11 142.5t10 205.5q126 -2 215 -2q75 0 200 2q-14 -225 -17 -348q-152 2 -203 2q-75 0 -216 -2z" />
    <glyph glyph-name="quotedbl" unicode="&#x22;" horiz-adv-x="813" 
d="M139 966q6 116 7 226l2 173q83 -2 130 -2q35 0 123 2q-21 -186 -37 -399q-67 3 -100 3q-50 0 -125 -3zM485 966q7 127 7 233l3 166q83 -2 129 -2q36 0 124 2q-23 -197 -37 -399q-68 3 -101 3q-50 0 -125 -3z" />
    <glyph glyph-name="numbersign" unicode="#" 
d="M278 383h-90l-143 -2q25 112 46 242l233 -2l29 155l-233 -1l21 102q10 46 25 139l232 -1l64 350q63 -2 127 -2q71 0 127 2l-68 -351l92 -1l90 1l65 351q62 -2 127 -2q72 0 126 2l-67 -350l231 1q-28 -127 -46 -241l-231 1l-29 -155l232 2q-25 -109 -47 -242l-231 2
l-69 -383q-64 2 -128 2q-72 0 -127 -2l75 384h-183q-7 -36 -70 -384q-63 2 -128 2q-72 0 -126 -2zM602 777l-29 -157h183l30 157l-93 1z" />
    <glyph glyph-name="dollar" unicode="$" 
d="M185 405q98 -44 180 -64t141 -20q52 0 89 25.5t37 70.5q0 11 -2.5 22.5t-7.5 21.5t-16 25.5t-19 23.5t-64 62q-160 155 -213 219q-41 50 -63.5 111.5t-22.5 120.5q0 46 13.5 90.5t39.5 84.5t62.5 72t80 52.5t129.5 42.5q2 32 2 38l-1 65v114q109 -2 181 -2q80 0 180 2
q-5 -111 -5 -130v-86q99 -14 195 -41q7 -162 19 -336q-81 37 -149.5 53t-113.5 16q-51 0 -84.5 -23.5t-33.5 -60.5q0 -32 19.5 -60t55.5 -62q130 -122 191.5 -195t86.5 -138.5t25 -129.5q0 -53 -13.5 -99.5t-39.5 -85.5t-60 -70t-70 -53t-106 -51l-2 -127q0 -63 1 -122
q-109 2 -173 2t-189 -2q5 70 5 177v41q-81 11 -135.5 23t-133.5 38q-7 251 -16 345z" />
    <glyph glyph-name="percent" unicode="%" horiz-adv-x="1852" 
d="M421 1381q100 0 179 -45t121 -137.5t42 -221.5q0 -140 -47.5 -254t-135.5 -166t-200 -52q-78 0 -146 26.5t-114 82t-66 132.5t-20 161q0 125 47 246.5t139 174.5t201 53zM411 1191q-37 0 -67 -36.5t-46 -109.5t-16 -145q0 -105 28 -156.5t75 -51.5q60 0 95 87.5t35 205.5
q0 100 -30 153t-74 53zM456 0l282 521l440 844q63 -2 111 -2q41 0 108 2l-218 -404l-371 -707l-125 -254q-61 2 -105 2q-28 0 -122 -2zM1475 859q99 0 175 -39t123 -129.5t47 -229.5q0 -94 -23 -186.5t-74.5 -162t-126 -99t-161.5 -29.5q-102 0 -178 40.5t-121.5 129.5
t-45.5 235q0 128 48.5 247.5t137.5 171t199 51.5zM1467 668q-40 0 -68.5 -38t-43.5 -106t-15 -144q0 -58 6 -92t18.5 -60t32.5 -41.5t47 -15.5q18 0 34 8t33.5 31.5t31.5 66t21 88t7 97.5q0 98 -27 152t-77 54z" />
    <glyph glyph-name="ampersand" unicode="&#x26;" horiz-adv-x="1571" 
d="M1088 725q102 -3 177 -3q76 0 169 3q0 -58 -4 -101t-15 -95t-28 -100t-33 -82.5t-44 -82.5q64 -80 122 -144t102 -120q-142 2 -228 2q-115 0 -218 -2l-79 99q-49 -32 -83.5 -51t-85.5 -37t-109 -27.5t-118 -9.5q-154 0 -280.5 51.5t-191 157t-64.5 225.5q0 136 79 244.5
t278 206.5q-38 65 -52.5 113.5t-14.5 91.5q0 70 35 136t102 113t138 62.5t162 15.5q160 0 335 -38l6 -268l1 -42q-70 29 -116.5 39.5t-86.5 10.5q-49 0 -86.5 -13.5t-56.5 -41.5t-19 -57q0 -18 5.5 -37.5t23 -54.5t52 -84.5t58 -78t70.5 -81.5l79 -93q7 23 9.5 38t5.5 51.5
t4 83.5zM824 332q-38 48 -97 116t-123 148q-33 -21 -51.5 -34t-33.5 -27.5t-27.5 -35.5t-18.5 -41.5t-6 -42.5q0 -45 24.5 -81.5t67 -55t93.5 -18.5q37 0 67 9t51.5 22.5t53.5 40.5z" />
    <glyph glyph-name="quotesingle" unicode="'" horiz-adv-x="467" 
d="M139 966q6 116 7 226l2 173q83 -2 130 -2q35 0 123 2q-21 -186 -37 -399q-67 3 -100 3q-50 0 -125 -3z" />
    <glyph glyph-name="parenleft" unicode="(" horiz-adv-x="762" 
d="M244 -468q-49 178 -80 367.5t-31 382.5q0 251 50 509t159 574q90 -2 158 -2q70 0 160 2l-43 -160q-18 -68 -39.5 -163.5t-38.5 -191t-29.5 -197.5t-18.5 -206t-6 -208q0 -113 4.5 -207t14.5 -181t21 -145t37 -174q-99 2 -153 2q-59 0 -165 -2z" />
    <glyph glyph-name="parenright" unicode=")" horiz-adv-x="752" 
d="M150 1365q99 -2 160 -2q64 0 158 2q59 -264 80.5 -452t21.5 -359q0 -252 -49.5 -503t-147.5 -519q-101 2 -164 2q-65 0 -154 -2q46 146 64 217q27 104 46 216q27 165 41.5 334.5t14.5 318.5q0 100 -6.5 206t-17.5 205t-24 186z" />
    <glyph glyph-name="asterisk" unicode="*" horiz-adv-x="1019" 
d="M189 834l169 166l-212 71q11 20 46.5 91t47.5 102l207 -101l-7 228q64 -2 110 -2q53 0 108 2l-34 -230l219 97q32 -99 67 -193l-221 -68l151 -166l-77 -60q-32 -25 -96 -78l-149 199l-176 -199q-65 66 -153 141z" />
    <glyph glyph-name="plus" unicode="+" 
d="M94 579q10 106 13 249l233 -2l215 -1l19 455q50 -2 130 -2q79 0 130 2l-26 -455l271 1l179 2q-9 -106 -13 -249l-178 1l-271 2q-3 -58 -19 -456q-55 3 -130 3t-130 -3l25 456l-239 -1z" />
    <glyph glyph-name="comma" unicode="," horiz-adv-x="604" 
d="M-28 -256l121 347l54 158q139 -2 203 -2q51 0 193 2q-50 -85 -103 -171t-103.5 -174t-94.5 -159q-88 2 -132 2q-55 0 -138 -3z" />
    <glyph glyph-name="hyphen" unicode="-" horiz-adv-x="547" 
d="M-3 393q12 145 15 277q142 -4 268 -4q128 0 269 4q-12 -129 -15 -277q-142 3 -269 3t-268 -3z" />
    <glyph glyph-name="period" unicode="." horiz-adv-x="604" 
d="M98 0q8 134 14 362l206 -3q33 0 174 3q-8 -109 -18 -362l-174 2q-19 0 -202 -2z" />
    <glyph glyph-name="slash" unicode="/" horiz-adv-x="908" 
d="M-273 -468l207 379l573 1068l204 386q82 -2 116 -2q42 0 116 2l-830 -1569q-46 -87 -134 -264q-88 2 -118 2q-20 0 -134 -2z" />
    <glyph glyph-name="zero" unicode="0" 
d="M704 1391q161 0 290.5 -63t202 -215.5t72.5 -359.5q0 -162 -44.5 -321t-121 -255.5t-201.5 -149.5t-267 -53q-121 0 -227 39t-186 127t-112 208.5t-32 257.5q0 166 44.5 326t124.5 261t201 149.5t256 48.5zM697 1095q-47 0 -84 -28q-45 -34 -71 -93q-32 -71 -48 -163
q-18 -101 -18 -222q0 -106 20 -175.5t60.5 -107.5t94.5 -38q30 0 58.5 13t60 52t55.5 112t35 152.5t11 161.5q0 170 -47 253t-127 83z" />
    <glyph glyph-name="one" unicode="1" 
d="M501 0q13 155 33 501t23 495q-37 -23 -72 -45.5t-152 -106.5q6 85 11 199.5t5 168.5q51 29 115.5 69t79 50.5t43.5 33.5q89 -2 205 -2q110 0 225 2l-20 -223l-43 -740l-10 -272v-130q-85 2 -207 2q-142 0 -236 -2z" />
    <glyph glyph-name="two" unicode="2" 
d="M77 0q4 47 6.5 124.5t6.5 158.5q104 85 191 165q141 130 250 244q87 91 146 167q34 45 45 75q8 21 8 43q0 29 -13 50.5t-41 36.5t-68 24t-91 9q-70 0 -147.5 -12t-211.5 -46l26 143q9 43 26 165q263 44 493 44q105 0 201 -19t172 -64.5t114 -106t38 -130.5q0 -46 -11 -91
q-11 -43 -41 -101q-38 -72 -94 -142q-83 -105 -192 -217q-104 -106 -250 -238l110 -1q39 0 154.5 2t160.5 4t111 9q-3 -48 -9.5 -120t-13.5 -176q-249 2 -521 2q-328 0 -555 -2z" />
    <glyph glyph-name="three" unicode="3" 
d="M134 27q-13 203 -26 323q223 -75 403 -75q111 0 179.5 44.5t68.5 119.5q0 73 -69.5 107t-216.5 34q-95 0 -174 -11q14 156 23 307q72 -13 151 -13q90 0 149.5 11.5t90.5 45t31 72.5q0 35 -24.5 63t-73.5 39.5t-122 11.5q-63 0 -134 -7t-193 -32l50 232q6 31 12 66
q217 26 398 26q118 0 227 -16t186.5 -58.5t114 -110.5t36.5 -153q0 -51 -13.5 -98t-41.5 -87.5t-66 -71.5t-74 -50t-96 -43q63 -13 98.5 -27t71.5 -40.5t61 -62t37 -79.5t12 -94q0 -99 -45.5 -183t-134 -139.5t-203 -79.5t-230.5 -24q-113 0 -215.5 11.5t-247.5 41.5z" />
    <glyph glyph-name="four" unicode="4" 
d="M617 0q9 89 16 189t10 159l-109 -1h-82l-376 -6l3 31q1 11 3 65l8 190q1 26 1 55q102 123 235.5 306.5t254.5 376.5q154 -2 277 -2q116 0 238 2q-17 -212 -26.5 -414.5t-10.5 -306.5q48 -2 113 -2q51 0 59 0.5t39 2.5q-4 -120 -4 -253v-47q-60 4 -177 4l-41 -1
q-8 -97 -8 -348q-99 2 -205 2q-99 0 -218 -2zM700 629l21 451q-66 -103 -108 -164t-61 -87l-145 -200h293z" />
    <glyph glyph-name="five" unicode="5" 
d="M159 20l-7 101q-3 49 -6.5 89t-13.5 130q207 -59 343 -59q73 0 134.5 23t94.5 65t33 92q0 73 -67.5 110.5t-211.5 37.5q-64 0 -125.5 -4.5t-166.5 -18.5l51 646q3 48 6 133q251 -2 483 -2q294 0 490 2q-9 -104 -11 -165l-5 -136l-133 5l-62 1h-97q-62 1 -154 1
q-31 0 -102 -2l-20 -229q67 5 104 5q156 0 275 -49.5t174 -138.5t55 -201q0 -109 -56 -209.5t-153.5 -160t-226 -86t-263.5 -26.5q-51 0 -121 6.5t-118 14.5t-123 25z" />
    <glyph glyph-name="six" unicode="6" 
d="M768 871q52 9 99 9q115 0 206.5 -45t138.5 -139.5t47 -210.5q0 -77 -21.5 -148.5t-61.5 -132t-99.5 -108t-127 -72.5t-143.5 -37.5t-154 -12.5q-181 0 -314.5 60.5t-194 166t-60.5 232.5q0 73 16.5 160t73 207.5t155 277.5t200.5 287h512q-152 -175 -202 -237
q-71 -89 -133.5 -183.5t-104 -175.5t-70.5 -159q-17 -46 -24.5 -86t-7.5 -75q0 -47 19 -90t57 -68t91 -25q50 0 88.5 23.5t57.5 65t19 87.5q0 81 -58.5 118t-116.5 37q-18 0 -54 -5q23 37 86 143z" />
    <glyph glyph-name="seven" unicode="7" 
d="M162 0q59 113 115 214t215 401l177 336q18 35 60 119q-88 1 -135 1q-209 0 -454 -13q10 133 14 307h1075l-15 -316l-239 -459l-152 -301q-61 -126 -136 -289h-525z" />
    <glyph glyph-name="eight" unicode="8" 
d="M371 700q-58 28 -85.5 47.5t-53 47.5t-42.5 62t-24 70t-7 72q0 97 44 175t130 128.5t184 69.5t206 19q103 0 199 -23.5t164.5 -73.5t100.5 -114.5t32 -154.5q0 -43 -8.5 -83t-26.5 -73.5t-44 -61.5t-55 -49t-97 -55q64 -18 98 -32.5t65.5 -40t54 -60t32.5 -73.5t10 -82
q0 -100 -49 -191t-133.5 -146t-196.5 -79.5t-229 -24.5q-112 0 -215.5 22t-184.5 73.5t-118 121.5t-37 159q0 52 13.5 101t41 92.5t63.5 73t70.5 46t97.5 37.5zM699 1115q-79 0 -125 -44t-46 -108q0 -38 20 -70t56 -47.5t78 -15.5q73 0 122 42.5t49 110.5q0 60 -41.5 96
t-112.5 36zM675 566q-90 0 -140.5 -45.5t-50.5 -117.5q0 -42 22.5 -78t65 -54.5t92.5 -18.5q52 0 94.5 20t67.5 59.5t25 90.5q0 68 -46.5 106t-129.5 38z" />
    <glyph glyph-name="nine" unicode="9" 
d="M293 0q88 106 165.5 205t156 211t119.5 184t66.5 136t34 104t8.5 79q0 53 -18.5 94.5t-56.5 62.5t-84 21q-78 0 -132.5 -50.5t-54.5 -133.5q0 -48 21 -82.5t62 -53t83 -18.5q26 0 73 11q-96 -135 -194 -286q-34 -5 -58 -5q-66 0 -143.5 25t-137 75.5t-90.5 130t-31 167.5
q0 118 52 222t145.5 170.5t204 94t238.5 27.5q118 0 227 -31t178.5 -95t103.5 -153.5t34 -172.5q0 -59 -14 -132t-44.5 -154t-84.5 -184.5t-127.5 -212.5t-180.5 -256h-521z" />
    <glyph glyph-name="colon" unicode=":" horiz-adv-x="604" 
d="M122 659q9 160 15 362l205 -2q33 0 174 2q-7 -97 -18 -362l-174 3q-19 0 -202 -3zM98 0q8 134 14 362l206 -3q33 0 174 3q-8 -109 -18 -362l-174 2q-19 0 -202 -2z" />
    <glyph glyph-name="semicolon" unicode=";" horiz-adv-x="604" 
d="M122 659q9 160 14 362l205 -2q34 0 175 2q-8 -105 -18 -362l-174 3q-20 0 -202 -3zM-28 -256l121 347l54 158q139 -2 203 -2q51 0 193 2q-50 -85 -103 -171t-103.5 -174t-94.5 -159q-88 2 -132 2q-55 0 -138 -3z" />
    <glyph glyph-name="less" unicode="&#x3c;" horiz-adv-x="1019" 
d="M953 1329v-363l-503 -274l502 -276l1 -360l-887 485v304z" />
    <glyph glyph-name="equal" unicode="=" 
d="M120 1020l575 -4l576 4q-10 -107 -14 -249q-286 3 -575 3q-290 0 -575 -3q9 106 13 249zM98 635q287 -3 575 -3q289 0 576 3q-10 -107 -13 -249q-286 4 -575 4q-290 0 -576 -4q9 107 13 249z" />
    <glyph glyph-name="greater" unicode="&#x3e;" horiz-adv-x="1019" 
d="M66 56v362l504 275l-502 276l-2 360l887 -485v-304z" />
    <glyph glyph-name="question" unicode="?" horiz-adv-x="1069" 
d="M294 431q5 84 9 120t11 62.5t17.5 47t30 46t49.5 57.5t83 86l33 34q17 16 30.5 33t20.5 29.5t10 23t3 21.5q0 51 -55 77t-156 26q-141 0 -326 -60l31 156q5 27 12 66.5t16 102.5q220 32 403 32q121 0 219.5 -18.5t172 -63.5t112.5 -107t39 -133q0 -30 -6 -61t-17 -59
t-32.5 -62.5t-50.5 -69.5t-47.5 -53.5t-70 -67.5t-78.5 -77t-44 -53t-26.5 -53.5t-17.5 -82.5q-101 3 -182 3q-79 0 -193 -2zM248 0l10 120l13 162q1 11 3 54q127 -2 208 -2q87 0 204 2q-10 -114 -13 -194t-7 -142q-135 2 -202 2q-71 0 -216 -2z" />
    <glyph glyph-name="at" unicode="@" horiz-adv-x="1785" 
d="M1312 993l-19 -83l-49 -246q-5 -23 -7.5 -41.5t-3 -26.5t-0.5 -13q0 -24 13.5 -36.5t34.5 -12.5q45 0 103.5 44.5t95.5 122.5t37 165q0 69 -24.5 128t-63 96t-93 65.5t-122.5 43.5q-106 24 -221 24q-141 0 -269.5 -36.5t-229.5 -122t-156 -207t-55 -251.5
q0 -105 36.5 -197.5t114 -154t180 -87t214.5 -25.5q124 0 222.5 20.5t197.5 76.5q13 -79 31 -155q-96 -56 -209 -83t-253 -27q-155 0 -295.5 40.5t-234 121t-140.5 198.5t-47 253q0 168 68.5 326.5t190 267t290 159.5t353.5 51q136 0 265.5 -30t229 -100t151 -175t51.5 -221
q0 -105 -44.5 -204t-124 -173t-179 -112t-198.5 -38q-72 0 -125 25t-69 75q-41 -36 -55 -47t-43 -24t-64 -21t-69 -8q-102 0 -167 69.5t-65 185.5q0 110 63 222t174.5 160t275.5 48q132 0 303 -30zM1015 824q-34 7 -62 7q-61 0 -106 -26.5t-70.5 -80t-25.5 -101.5
q0 -47 24 -73t60 -26q33 0 64.5 19t52.5 52.5t33.5 82t29.5 146.5z" />
    <glyph glyph-name="A" unicode="A" horiz-adv-x="1667" 
d="M-79 0l83 144l517 974l55 109q24 48 67 138q176 -2 257 -2q141 0 261 2l146 -417l297 -802l58 -146q-173 2 -210 2q-84 0 -247 -2q-44 165 -127 388h-504q-87 -176 -180 -388q-186 2 -228 2q-76 0 -245 -2zM695 679h311q-116 353 -127 389q-66 -147 -112 -241z" />
    <glyph glyph-name="B" unicode="B" horiz-adv-x="1453" 
d="M104 0q21 220 28 346q10 172 19.5 472t9.5 423q0 44 -1 124q133 -3 211 -3q109 0 254 4.5t249 4.5q125 0 178 -7q70 -9 122.5 -32t87.5 -57q39 -40 61 -96q25 -64 25 -137q0 -57 -14.5 -109t-41 -92.5t-59.5 -67.5t-64.5 -42t-84.5 -30q53 -9 85 -20.5t68.5 -37
t65.5 -65.5t43.5 -89.5t14.5 -104.5q0 -76 -25 -143t-70 -115q-38 -41 -99 -70t-125 -40q-52 -8 -189.5 -12t-291.5 -4l-263 1zM550 833h142q70 0 99.5 3.5t57.5 12.5t48.5 30t29 47t8.5 52q0 37 -17.5 66t-56.5 43t-119 14h-180zM527 274h192q76 0 112 9q44 11 67 29
t36.5 49t13.5 69q0 33 -11 58t-33 42t-54 24.5t-100 7.5h-211z" />
    <glyph glyph-name="C" unicode="C" horiz-adv-x="1373" 
d="M1282 333q-12 -59 -29 -164.5t-23 -163.5q-214 -31 -382 -31q-162 0 -301.5 40.5t-256 133t-166.5 217.5t-50 280q0 181 67.5 325.5t194 241t277.5 138t312 41.5q148 0 366 -38l2 -84q2 -55 6 -121l7 -114q-117 28 -189.5 38t-134.5 10q-135 0 -243 -54t-170 -157
t-62 -228q0 -114 52 -195.5t140.5 -126t218.5 -44.5q71 0 154.5 11.5t209.5 44.5z" />
    <glyph glyph-name="D" unicode="D" horiz-adv-x="1584" 
d="M102 0q22 228 30 365q12 204 24 528q9 248 9 355v117q117 -3 202 -3q82 0 215 4.5t250 4.5q134 0 235 -16t188.5 -66t146.5 -131t90 -189.5t31 -223.5q0 -113 -24 -217.5t-67 -188.5t-100.5 -144.5t-131.5 -103.5q-55 -32 -111 -50t-153 -29q-108 -12 -245 -12l-404 3
q-57 0 -185 -3zM534 301q55 -5 115 -5q102 0 182 18t140.5 77t89.5 151.5t29 189.5q0 119 -43 200.5t-114.5 113.5t-194.5 32q-72 0 -170 -6z" />
    <glyph glyph-name="E" unicode="E" horiz-adv-x="1350" 
d="M99 0q25 258 36.5 432t23 462.5t11.5 382.5l-1 88q236 -2 571 -2q309 0 545 2l-2 -33q-1 -12 -5 -87l-6 -109q-2 -35 -2 -71q-193 8 -324 8q-144 0 -194.5 -0.5t-157.5 -4.5l-12 -229q118 -3 275 -3q56 0 298 7q-10 -128 -19 -305q-173 2 -266 2q-138 0 -309 -7l-12 -243
h115q51 0 211 3l207 5q46 1 154 8q-12 -148 -20 -306q-244 2 -535 2l-440 -1z" />
    <glyph glyph-name="F" unicode="F" horiz-adv-x="1257" 
d="M104 0q21 203 29 326q12 182 23 500.5t11 428.5v110q301 -2 560 -2q261 0 502 2q-16 -230 -16 -301l-87 3l-70 1l-70 1h-197q-34 0 -199 -2l-9 -233l145 -3h162q70 0 214 3q-11 -189 -11 -296q-161 5 -239 5q-132 0 -288 -5l-10 -360l-1 -134v-44l-215 2q-25 0 -234 -2z
" />
    <glyph glyph-name="G" unicode="G" horiz-adv-x="1598" 
d="M903 796q137 -2 261 -2q212 0 332 2q-13 -137 -26.5 -388t-16.5 -379q-115 -21 -190.5 -30.5t-181.5 -17t-189 -7.5q-136 0 -267 22t-234.5 71t-172.5 133t-106.5 199t-37.5 238q0 203 101 377t290.5 275.5t489.5 101.5q219 0 485 -53q0 -146 13 -325q-72 24 -116.5 36.5
t-104 23t-113 15.5t-95.5 5q-110 0 -208 -31.5t-168.5 -97t-105.5 -156.5t-35 -192q0 -103 40 -183.5t127 -122.5t194 -42q89 0 195 26l11 217q-65 3 -77 3l-106 -1l7 123q1 20 3 57.5t2 102.5z" />
    <glyph glyph-name="H" unicode="H" horiz-adv-x="1676" 
d="M104 0l39 546l18 398l5 177q2 77 2 148l-1 96q157 -2 235 -2q61 0 212 2q-24 -287 -31 -507l544 1q5 82 9.5 221.5t4.5 190.5q0 27 -2 94l237 -2q37 0 210 2q-36 -514 -46 -764.5t-10 -600.5l-218 2q-49 0 -234 -2q25 238 34 554h-545l-17 -554l-232 2q-44 0 -214 -2z
" />
    <glyph glyph-name="I" unicode="I" horiz-adv-x="700" 
d="M104 0q58 803 58 1236l-1 129q175 -2 234 -2q27 0 215 2q-18 -225 -29 -426q-14 -280 -20 -523.5t-6 -415.5l-205 2q-60 0 -246 -2z" />
    <glyph glyph-name="J" unicode="J" horiz-adv-x="1057" 
d="M-22 31q-9 171 -23 334q113 -43 182.5 -58t129.5 -15q67 0 120 24q40 19 63 49q31 42 42 98q19 101 29 351.5t10 433.5v117q160 -2 213 -2q66 0 226 2l-30 -442q-11 -196 -16 -417q-4 -170 -17 -233q-12 -57 -34 -96q-20 -37 -50 -66q-37 -35 -89 -61q-70 -36 -149 -54
q-87 -20 -186 -20q-183 0 -421 55z" />
    <glyph glyph-name="K" unicode="K" horiz-adv-x="1567" 
d="M99 0q19 187 27 310q15 218 32 597q12 264 12 372v86q167 -2 230 -2q42 0 216 2l-47 -747l-24 -618l-217 2q-46 0 -229 -2zM600 720l224 305l181 254l56 86q186 -2 252 -2q18 0 239 2l-422 -533l-79 -107l74 -118l418 -607l-246 2q-80 0 -271 -2q-129 243 -426 720z" />
    <glyph glyph-name="L" unicode="L" horiz-adv-x="1200" 
d="M90 0q25 236 36 385q21 272 31.5 540.5t10.5 439.5q136 -2 241 -2q71 0 204 2l-24 -362l-30 -566l-4 -139q172 -3 224 -3q263 0 398 7l-22 -302q-263 2 -501 2q-322 0 -564 -2z" />
    <glyph glyph-name="M" unicode="M" horiz-adv-x="1886" 
d="M77 0l25 202l62 701l31 462q184 -2 289 -2q87 0 266 2q13 -86 22 -130.5t44.5 -174t57 -224t64.5 -323.5q44 157 80 270t90 257t68.5 188.5t39.5 136.5q150 -2 294 -2q98 0 272 2q-19 -337 -25 -579q-13 -474 -13 -652q0 -37 2 -134q-132 2 -185 2q-77 0 -189 -2
q8 90 20 428.5t12 432.5q0 41 -2 114l-131 -407l-188 -568q-130 2 -179 2q-62 0 -190 -2l-123 550l-72 293q-4 17 -9 42t-16 88l-25 -277l-33 -568l-3 -128q-138 2 -176 2q-52 0 -180 -2z" />
    <glyph glyph-name="N" unicode="N" horiz-adv-x="1681" 
d="M101 0l20 210l39 712l11 287v156q155 -2 274 -2q85 0 239 2l428 -776l59 -114q11 168 22.5 471t11.5 419q123 -2 197 -2q34 0 196 2l-24 -298l-45 -828l-6 -239q-130 2 -243 2q-94 0 -260 -2q-52 98 -77 142l-168 285q-83 140 -153 268q-46 81 -95 178l-21 -474l-10 -399
q-124 2 -189 2q-55 0 -206 -2z" />
    <glyph glyph-name="O" unicode="O" horiz-adv-x="1774" 
d="M926 1391q160 0 308 -43t259 -137.5t166 -217.5t55 -283q0 -168 -60.5 -308.5t-174.5 -238.5t-272 -143.5t-329 -45.5q-169 0 -324 44.5t-269.5 144t-162.5 221.5t-48 271q0 219 101.5 384.5t301 258.5t449.5 93zM908 1090q-115 0 -208 -56.5t-143 -157t-50 -215.5
q0 -106 45.5 -194t138.5 -137.5t197 -49.5q111 0 203.5 55.5t141 156t48.5 210.5q0 107 -45 197.5t-132 140.5t-196 50z" />
    <glyph glyph-name="P" unicode="P" horiz-adv-x="1307" 
d="M104 0l20 256l26 500l11 354q1 57 1 114q0 43 -1 141q132 -3 212 -3q77 0 211 4.5t227 4.5q134 0 198.5 -17t116.5 -53.5t86 -85.5t51 -111.5t17 -127.5q0 -134 -65 -245t-183 -166t-265 -55q-54 0 -125 12q-8 46 -30 137t-36 135q44 -9 92 -9q101 0 150.5 48.5
t49.5 118.5q0 34 -11 60.5t-35 43.5t-53 22t-66 5q-36 0 -75 -2l-84 -6q-13 -193 -20 -429q-13 -430 -13 -516v-130l-199 2q-42 0 -208 -2z" />
    <glyph glyph-name="Q" unicode="Q" horiz-adv-x="1807" 
d="M1759 343q-19 -79 -31 -149l-29 -162q-162 -26 -380 -42t-390 -16q-151 0 -285.5 25t-247.5 90t-187 156t-104.5 195t-30.5 221q0 159 57 291.5t167.5 229.5t269 153t364.5 56q158 0 305.5 -44.5t253.5 -135t163.5 -214.5t57.5 -246q0 -70 -16 -138t-45.5 -126.5
t-64 -101.5t-83.5 -93q92 13 136.5 22.5t119.5 28.5zM909 1088q-117 0 -215.5 -57t-150 -157.5t-51.5 -207.5q0 -117 49.5 -202t140.5 -133t196 -48q111 0 206 53t145 151.5t50 214.5q0 107 -44 196t-130.5 139.5t-195.5 50.5z" />
    <glyph glyph-name="R" unicode="R" horiz-adv-x="1435" 
d="M98 0q19 176 30 317t19 327t12 392.5t4 328.5q125 -3 202 -3q80 0 195 4.5t224 4.5q128 0 228 -10q75 -7 136.5 -29t103.5 -53.5t70 -70.5t43.5 -91.5t15.5 -112.5q0 -67 -17 -125.5t-53.5 -110t-92 -89t-155.5 -76.5l52 -127q22 -53 47 -108l134 -293q9 -19 32 -75
q-165 2 -222 2q-72 0 -236 -2q-16 52 -58 193q-17 59 -29 91q-24 71 -71 199l-103 283q54 -10 106 -10q73 0 132.5 22t90 68t30.5 97q0 43 -23 75.5t-72.5 48.5t-152.5 16q-35 0 -72.5 -1.5t-87.5 -2.5q-13 -205 -23 -500t-13 -579q-167 2 -217 2q-58 0 -209 -2z" />
    <glyph glyph-name="S" unicode="S" horiz-adv-x="1132" 
d="M88 21q-13 213 -30 341q112 -50 199.5 -69.5t153.5 -19.5q87 0 138.5 25.5t51.5 75.5q0 17 -5 32.5t-19 35t-40 42.5l-188 164q-66 56 -92 81q-53 51 -82.5 95t-43 89.5t-13.5 96.5q0 61 21.5 119.5t64.5 109.5t114 88t152 50.5t167 13.5q169 0 368 -39q3 -69 7 -126.5
t19 -201.5q-92 37 -168 51.5t-131 14.5q-78 0 -129.5 -29t-51.5 -72q0 -20 8 -39t30 -44.5t58 -56t113 -90.5l72 -57q32 -26 69 -63t64 -73t41.5 -66t21.5 -60.5t7 -65.5q0 -90 -43 -171.5t-122 -134t-173.5 -73.5t-199.5 -21q-162 0 -409 47z" />
    <glyph glyph-name="T" unicode="T" horiz-adv-x="1300" 
d="M404 0q50 486 60 1070l-426 -11l5 111q4 89 6 195q284 -2 662 -2l247 1h240l130 1l-6 -97q-4 -78 -5.5 -129t-1.5 -77q-214 10 -353 10h-70q-15 -177 -23 -327q-11 -215 -17 -417.5t-6 -327.5q-164 2 -212 2q-43 0 -230 -2z" />
    <glyph glyph-name="U" unicode="U" horiz-adv-x="1592" 
d="M160 1365q156 -2 220 -2q80 0 213 2l-30 -425q-9 -120 -13.5 -225t-4.5 -145q0 -76 11 -127t40 -86.5t80.5 -53.5t107.5 -18q48 0 90 11q33 9 59 25q23 15 40 35q21 24 37 60q16 34 24 88q9 55 24 250q13 166 20 304q6 134 11 307q151 -2 238 -2l203 2l-49 -710
q-1 -20 -1 -33q-4 -208 -25.5 -293.5t-71.5 -148.5t-146 -113.5t-218 -71.5t-247 -21q-112 0 -216 16q-96 16 -173 46.5t-134 71.5q-52 38 -80 77.5t-44 94.5q-18 62 -18 133q0 24 2 72.5t9 139.5l13 160q5 63 11 185z" />
    <glyph glyph-name="V" unicode="V" horiz-adv-x="1543" 
d="M463 0l-37 122l-244 703l-192 540q136 -2 242 -2q65 0 204 2q23 -89 36 -135q18 -60 68 -217l147 -473q22 -74 54 -193l46 115l349 764q9 21 20.5 48t36.5 91q145 -2 233 -2q55 0 218 2q-102 -190 -231 -444l-345 -684q-50 -100 -112 -237q-168 2 -240 2q-67 0 -253 -2z
" />
    <glyph glyph-name="W" unicode="W" horiz-adv-x="2225" 
d="M369 0l-34 184q-12 65 -37 182l-163 747l-59 252q126 -2 204 -2q88 0 204 2q27 -163 43 -239l84 -403q26 -130 58 -317l33 140l119 462l82 357q137 -2 232 -2q103 0 231 2l63 -421l87 -536l39 147q11 38 23 77t50 155l122 384l57 194q121 -1 200 -1q89 0 199 1
l-388 -1162l-62 -203q-150 2 -262 2q-118 0 -261 -2l-23 137l-88 477q-7 43 -12.5 88.5t-15.5 141.5l-35 -155q-13 -52 -27 -105l-161 -584q-151 2 -251 2q-106 0 -251 -2z" />
    <glyph glyph-name="X" unicode="X" horiz-adv-x="1403" 
d="M-93 0q117 148 284.5 372t259.5 356l-118 199q-33 54 -95 151l-100 155q-37 58 -83 132q129 -2 264 -2q107 0 229 2q44 -87 103.5 -188.5t94.5 -176.5q40 69 109 171.5t121 193.5q106 -2 231 -2q81 0 230 2q-72 -103 -214 -292t-269 -373q162 -276 440 -700
q-158 2 -237 2q-132 0 -261 -2q-39 80 -109.5 202.5t-122.5 225.5q-39 -70 -128 -197t-157 -231q-146 2 -231 2q-94 0 -241 -2z" />
    <glyph glyph-name="Y" unicode="Y" horiz-adv-x="1321" 
d="M389 0q10 81 24 275t14 274l-458 816q151 -2 249 -2q94 0 225 2q40 -100 108.5 -238.5t111.5 -247.5q115 203 185 316.5t100 169.5q127 -2 244 -2q62 0 225 2l-439 -647q-131 -194 -131 -203l-1 -10v-10l-1 -10l-7 -152q-7 -151 -11 -333q-141 2 -218 2q-79 0 -220 -2z
" />
    <glyph glyph-name="Z" unicode="Z" horiz-adv-x="1365" 
d="M41 0q12 206 12 304l59 58q12 12 185 199l332 359q58 65 135 155l-79 1l-79 1h-139q-158 0 -334 -11q9 108 9 234q0 24 -2 65q284 -2 603 -2q330 0 569 2q-7 -105 -9 -166l-4 -134l-57 -55q-14 -14 -28 -29l-626 -685l137 -1q49 0 142 1l276 6q31 1 109 5
q-11 -178 -15 -307q-319 2 -579 2h-228l-258 -1z" />
    <glyph glyph-name="bracketleft" unicode="[" horiz-adv-x="762" 
d="M176 1365q106 -2 270 -2q163 0 270 2q-4 -28 -8 -107.5t-4 -117.5q-56 3 -103 3q-48 0 -104 -3l-31 -506l-23 -497l-12 -381q56 -3 102 -3q47 0 102 3q-3 -29 -6.5 -100.5t-5.5 -123.5q-107 2 -268 2t-268 -2q36 464 57 907t32 926z" />
    <glyph glyph-name="backslash" unicode="\" horiz-adv-x="888" 
d="M1065 -468l-129 2q-30 0 -114 -2l-126 299l-678 1534q72 -2 111 -2q34 0 112 2l150 -341l566 -1259q26 -57 108 -233z" />
    <glyph glyph-name="bracketright" unicode="]" horiz-adv-x="762" 
d="M541 -468q-161 2 -270 2q-111 0 -270 -2q3 29 7.5 108t4.5 117q52 -3 103 -3q52 0 103 3q49 705 66 1384q-56 3 -102 3t-101 -3q2 29 6 100t5 124q114 -2 268 -2t269 2l-38 -547l-14 -245l-24 -564z" />
    <glyph glyph-name="asciicircum" unicode="^" horiz-adv-x="1020" 
d="M334 697h-319l293 678h403l293 -678h-318l-176 431z" />
    <glyph glyph-name="underscore" unicode="_" horiz-adv-x="1019" 
d="M-2 -103h1024v-216h-1024v216z" />
    <glyph glyph-name="grave" unicode="`" horiz-adv-x="1024" 
d="M714 1164q-104 2 -149 2q-64 0 -158 -2q-29 37 -58.5 75.5t-38.5 49.5l-80 97q125 -2 202 -2q100 0 200 2z" />
    <glyph glyph-name="a" unicode="a" horiz-adv-x="1240" 
d="M182 730q19 99 24 136.5t16 117.5q288 63 495 63q118 0 216 -26.5t153 -85.5t55 -169q0 -56 -15 -252t-23 -514q-98 2 -195 2q-94 0 -200 -2q14 110 31 454q-38 -18 -59.5 -26t-75.5 -24t-84.5 -27t-53 -28t-32 -35t-9.5 -40q0 -34 27 -58t86 -24q21 0 45 3.5t66 17.5
q-29 -77 -69 -225q-86 -14 -163 -14q-124 0 -206.5 34.5t-127 111.5t-44.5 154q0 47 16.5 92t51.5 88t82 73.5t128.5 57.5t206.5 51q52 10 95.5 21.5t62 20t30 20t16.5 24t5 26.5q0 38 -32 58.5t-94 20.5q-172 0 -425 -97z" />
    <glyph glyph-name="b" unicode="b" horiz-adv-x="1340" 
d="M84 0q28 315 49 734t21 631q116 -2 217 -2q99 0 194 2q-22 -156 -32 -343q91 15 140 20t97 5q154 0 263.5 -48.5t178 -163.5t68.5 -281t-65 -305.5t-174 -207t-254 -67.5q-54 0 -103 11t-89 32.5t-67 45.5t-62 65l-4 -128q-107 2 -179 2q-59 0 -199 -2zM505 741
q-8 -166 -8 -203q0 -94 16.5 -149t63 -88t104.5 -33q60 0 105 33t68.5 96.5t23.5 133.5q0 105 -56.5 168.5t-162.5 63.5q-66 0 -154 -22z" />
    <glyph glyph-name="c" unicode="c" horiz-adv-x="1036" 
d="M940 319q-5 -40 -24 -147l-26 -160q-157 -38 -307 -38q-109 0 -191 22q-97 26 -174 92q-79 68 -115 161q-43 109 -43 244q0 124 42 239t124 189.5t182 100t221 25.5q71 0 143 -7.5t178 -32.5l2 -23q3 -36 4.5 -73.5t6.5 -118.5l6 -89q-143 50 -253 50q-79 0 -138.5 -30.5
t-88 -88t-28.5 -133.5q0 -77 25.5 -129t81.5 -78t123 -26q34 0 80.5 7t81 15.5t87.5 28.5z" />
    <glyph glyph-name="d" unicode="d" horiz-adv-x="1351" 
d="M1214 0q-107 2 -178 2q-80 0 -194 -2l6 127q-39 -38 -68 -61.5t-74.5 -45.5t-98 -34t-108.5 -12q-96 0 -179.5 35t-142.5 99.5t-88 153t-29 183.5q0 135 53 264t138.5 203t193 104.5t232.5 30.5q83 0 194 -15q8 119 11 333q123 -2 201 -2q101 0 204 2q-29 -297 -51 -725
t-22 -640zM857 772q-53 12 -100 12q-97 0 -165 -37.5t-104.5 -117t-36.5 -156.5q0 -58 20.5 -104.5t63 -73.5t94.5 -27q55 0 100.5 31t74 91t39 142.5t14.5 239.5z" />
    <glyph glyph-name="e" unicode="e" horiz-adv-x="1212" 
d="M1078 302q-13 -60 -50 -290q-116 -23 -195 -30.5t-160 -7.5q-119 0 -219 16.5t-172.5 58.5t-121.5 104.5t-74.5 148.5t-25.5 177q0 128 51 250.5t131.5 191.5t185.5 98t215 29q114 0 217.5 -26.5t175.5 -92.5t102.5 -149t30.5 -179q0 -57 -13 -127l-701 -1q-1 -16 -1 -29
q0 -108 77 -159t188 -51q66 0 150.5 15.5t208.5 52.5zM463 626h330q1 17 1 29q0 52 -18.5 89t-53 54t-77.5 17q-30 0 -58 -9.5t-50.5 -28t-37.5 -42.5t-22 -46.5t-14 -62.5z" />
    <glyph glyph-name="f" unicode="f" horiz-adv-x="811" 
d="M132 0q19 192 46 734h-122q3 31 8.5 132t6.5 146h142q-1 40 -1 69q0 92 9.5 144t35 88.5t72 65t105 38.5t121.5 10q58 0 125.5 -7.5t161.5 -32.5q3 -159 13 -264q-99 36 -178 36q-54 0 -84.5 -25t-30.5 -92l1 -30h230q-8 -115 -16 -278h-208l-33 -734q-119 2 -204 2
q-86 0 -200 -2z" />
    <glyph glyph-name="g" unicode="g" horiz-adv-x="1350" 
d="M168 -124q129 -44 227 -61.5t171 -17.5q53 0 96 11.5t69 28.5t44.5 43t28.5 58t14 74t7 116q-39 -35 -67.5 -56t-70.5 -40.5t-91.5 -30t-104.5 -10.5q-127 0 -229 59t-152 165t-50 229q0 145 54 262t154.5 198t220.5 112t272 31q87 0 197.5 -10.5t303.5 -45.5l-24 -330
l-21 -362q-2 -39 -2 -64l-8 -325q-2 -62 -15 -118q-11 -51 -37 -95t-64 -77q-42 -36 -94 -57q-53 -22 -125 -36q-78 -14 -163 -14q-48 0 -118 4.5t-143.5 13.5t-127 19t-135.5 29l-7 132q-1 38 -10 165zM855 741q-62 12 -111 12q-90 0 -155.5 -34.5t-101.5 -103t-36 -142.5
q0 -54 19 -100t63 -72.5t93 -26.5q72 0 128 52t77 142t24 273z" />
    <glyph glyph-name="h" unicode="h" horiz-adv-x="1394" 
d="M82 0q16 149 23 245q14 201 29 467q9 176 13.5 338t4.5 315q127 -2 207 -2q108 0 204 2l-21 -242q-5 -60 -16 -243q33 42 54 62.5t46.5 38t52 29.5t61 21t76 14t85.5 5q85 0 164.5 -19t135.5 -66.5t76 -106t20 -128.5q0 -27 -1.5 -71.5t-6.5 -112.5l-22 -337
q-4 -63 -4.5 -104.5t-0.5 -104.5q-104 2 -199 2q-107 0 -217 -2q17 133 30 306.5t13 258.5q0 94 -39.5 132t-104.5 38q-58 0 -103 -24q-40 -21 -70 -65q-26 -37 -43 -107q-20 -85 -31 -251q-6 -92 -12 -288q-101 2 -189 2q-89 0 -215 -2z" />
    <glyph glyph-name="i" unicode="i" horiz-adv-x="639" 
d="M145 1148q6 119 6 188q0 20 -1 54q121 -2 203 -2q113 0 198 2q-3 -31 -4 -52l-6 -124q-2 -28 -2 -66q-99 2 -190 2q-94 0 -204 -2zM82 0q14 122 21 201t13.5 202t11.5 272t8 346q130 -2 208 -2q71 0 204 2q-17 -189 -24.5 -332t-9.5 -303q-4 -284 -4 -386q-119 2 -205 2
q-85 0 -223 -2z" />
    <glyph glyph-name="j" unicode="j" horiz-adv-x="642" 
d="M145 1151q10 146 11 239q82 -2 198 -2q104 0 196 2q-10 -146 -13 -239q-98 3 -196 3q-101 0 -196 -3zM539 1021l-21 -509l-10 -472q-2 -98 -2 -115q0 -115 -17.5 -195.5t-70 -129t-130 -68t-176.5 -19.5q-59 0 -144.5 7t-190.5 26q-6 109 -27 296q89 -27 157 -27
q55 0 99 21q35 16 55 42t31 70q10 39 17 133q12 184 19 449q5 225 5 389v102q119 -2 206 -2q92 0 200 2z" />
    <glyph glyph-name="k" unicode="k" horiz-adv-x="1277" 
d="M83 0q14 128 20 208q8 109 16 273l11 237q7 161 10 308q4 176 4 339q140 -2 210 -2q81 0 192 2q-23 -262 -42 -651t-19 -714q-116 2 -196 2q-92 0 -206 -2zM524 574l172 248l129 199q138 -2 209 -2q98 0 232 2l-199 -259q-70 -89 -143 -192q70 -129 337 -570
q-117 2 -211 2q-96 0 -220 -2l-62 125q-33 65 -57 109q-9 18 -137 245z" />
    <glyph glyph-name="l" unicode="l" horiz-adv-x="634" 
d="M86 1l18 215l39 747l11 402q139 -2 209 -2q91 0 201 2l-23 -307l-37 -756l-8 -302q-107 2 -193 2z" />
    <glyph glyph-name="m" unicode="m" horiz-adv-x="1909" 
d="M91 0l28 482l16 377l2 162q110 -2 194 -2q95 0 185 2l-7 -133q31 40 52.5 61.5t52.5 41t64 31t74 18.5t86 7q51 0 94 -8.5t74 -21.5t54 -30t40.5 -38.5t40.5 -62.5q44 64 93 97t111.5 48.5t128.5 15.5q87 0 164 -25t126.5 -86.5t49.5 -159.5q0 -46 -6.5 -139t-18 -319.5
t-12.5 -317.5q-92 2 -178 2q-105 0 -220 -2q10 127 20.5 318.5t10.5 265.5q0 64 -15 95.5t-38.5 43t-51.5 11.5q-30 0 -52 -11q-24 -12 -42 -37q-24 -33 -39 -83q-12 -39 -19 -119q-7 -82 -11 -216l-8 -268q-107 2 -193 2q-88 0 -207 -2q9 89 21 299t12 281q0 60 -12 90
t-33.5 48t-57.5 18q-39 0 -68 -23t-49.5 -66t-29 -118.5t-15.5 -230.5t-9 -298q-121 2 -196 2q-83 0 -206 -2z" />
    <glyph glyph-name="n" unicode="n" horiz-adv-x="1392" 
d="M78 0q29 227 44.5 501.5t18.5 519.5q120 -2 207 -2q101 0 194 2l-10 -136q33 37 57 58.5t59.5 42t75.5 33.5t87.5 20.5t99.5 7.5q72 0 140.5 -15.5t114.5 -44t77 -71t41 -91.5t10 -101q0 -38 -8 -164l-17 -362q-5 -107 -5 -198q-101 2 -189 2q-119 0 -217 -2
q9 91 19 270.5t10 252.5q0 113 -43.5 157.5t-109.5 44.5q-58 0 -109.5 -38t-79.5 -110.5t-39.5 -238.5t-15.5 -338q-100 2 -195 2q-100 0 -217 -2z" />
    <glyph glyph-name="o" unicode="o" horiz-adv-x="1329" 
d="M683 1047q124 0 238.5 -38t193.5 -109.5t116.5 -167t37.5 -205.5q0 -107 -33.5 -203.5t-113.5 -181t-203.5 -126.5t-261.5 -42q-127 0 -244 37t-195.5 108t-118 170t-39.5 208t38.5 208t122 178t206.5 121.5t256 42.5zM676 753q-64 0 -114 -33t-75.5 -96.5t-25.5 -138.5
q0 -110 55 -168.5t138 -58.5q63 0 113 33.5t75.5 99t25.5 140.5q0 62 -20 112t-65.5 80t-106.5 30z" />
    <glyph glyph-name="p" unicode="p" horiz-adv-x="1345" 
d="M58 -468q19 205 32 409q23 349 31.5 585.5t8.5 468.5q203 31 318 41.5t230 10.5q144 0 265 -30t194.5 -106t110.5 -181t37 -220q0 -105 -30 -203.5t-92 -177.5t-142.5 -117t-179.5 -38q-49 0 -101.5 9.5t-99.5 27.5t-78.5 36.5t-78.5 53.5l-11 -279q-7 -192 -7 -290
q-116 2 -199 2q-72 0 -208 -2zM519 740q-8 -45 -11 -73.5t-6 -77t-3 -77.5q0 -82 25.5 -137.5t71 -86t97.5 -30.5q55 0 101 31.5t73 94.5t27 142q0 107 -56.5 172t-164.5 65q-68 0 -154 -23z" />
    <glyph glyph-name="q" unicode="q" horiz-adv-x="1346" 
d="M783 -468l23 319q6 71 17 268q-45 -42 -74 -64t-71.5 -41.5t-90 -29.5t-97.5 -10q-135 0 -233.5 67.5t-147.5 176t-49 234.5q0 96 27.5 188.5t80.5 172t145 134t215 77.5t257 23q206 0 480 -45q-23 -251 -37 -463t-21.5 -423t-14.5 -584q-95 2 -200 2q-88 0 -209 -2z
M841 742q-58 11 -101 11q-94 0 -158.5 -36.5t-97.5 -109t-33 -157.5q0 -53 17.5 -96.5t56.5 -69.5t86 -26q37 0 72 15.5t64 45.5t48.5 76.5t29 122t16.5 224.5z" />
    <glyph glyph-name="r" unicode="r" horiz-adv-x="880" 
d="M87 0l31 444l10 255q1 69 1 141q0 73 -2 181q121 -2 192 -2q83 0 191 2l-4 -113q39 44 64 65.5t57 39t67 26t73 8.5q36 0 80 -10q1 -109 5 -180l7 -154q-55 16 -103 16q-60 0 -103.5 -17.5t-77 -53t-53.5 -88.5t-28 -168t-8 -263q0 -52 4 -129q-97 2 -195 2
q-97 0 -208 -2z" />
    <glyph glyph-name="s" unicode="s" horiz-adv-x="989" 
d="M80 19q-4 44 -8 92.5t-13 133.5l-8 72q97 -38 167 -56.5t129 -18.5q49 0 79.5 9t44.5 26t14 35q0 16 -10.5 31.5t-47.5 42.5q-82 60 -144.5 109t-94 87t-48 82t-16.5 91q0 83 47.5 155t140 104.5t225.5 32.5q139 0 355 -36l16 -281q-121 48 -233 48q-79 0 -114.5 -16
t-35.5 -49q0 -11 4 -21t14.5 -21t26 -22.5t75.5 -53.5t94 -69q56 -44 85.5 -81.5t45 -80t15.5 -89.5q0 -71 -34.5 -130.5t-104 -99.5t-150.5 -55.5t-167 -15.5q-58 0 -145.5 10t-203.5 35z" />
    <glyph glyph-name="t" unicode="t" horiz-adv-x="872" 
d="M832 294q-18 -84 -31 -164l-22 -122q-99 -22 -154.5 -28t-107.5 -6q-85 0 -151 14.5t-110 53t-60 88.5t-16 106q0 10 1 35.5t7 113.5l22 346h-156q5 69 9 182l3 93h166q6 46 15 201l171 35q47 9 200 46q-7 -131 -10 -282h228q-8 -208 -8 -275h-230l-12 -250
q-2 -56 -2 -72q0 -48 10.5 -80t37 -46t58.5 -14q24 0 50 3.5t92 21.5z" />
    <glyph glyph-name="u" unicode="u" horiz-adv-x="1345" 
d="M1207 0q-114 2 -190 2q-94 0 -189 -2l-1 137q-36 -45 -61 -67.5t-54.5 -39.5t-66 -29.5t-84 -19.5t-96.5 -7q-79 0 -149.5 18.5t-124 62.5t-73 100t-19.5 130q0 18 3 56l16 227q7 125 13 277q4 93 4 176q124 -2 211 -2q88 0 194 2l-31 -381q-7 -87 -7.5 -118.5
t-0.5 -42.5q0 -105 42.5 -142t101.5 -37q24 0 48 7t46 20q19 12 35 30q17 19 30 46q16 33 24 71q11 53 17 134q4 59 11 204l8 209q129 -2 212 -2q93 0 187 2q-23 -254 -36 -483t-20 -538z" />
    <glyph glyph-name="v" unicode="v" horiz-adv-x="1207" 
d="M363 0l-106 328l-239 693q114 -2 212 -2q102 0 192 2q17 -69 67 -241.5t110 -410.5l26 83q6 15 47 128l159 441q108 -2 204 -2q99 0 206 2l-138 -297l-257 -590l-55 -134q-118 2 -208 2q-98 0 -220 -2z" />
    <glyph glyph-name="w" unicode="w" horiz-adv-x="1859" 
d="M356 0q-221 704 -338 1021q98 -2 197 -2q93 0 177 2l142 -524l24 -103l66 206l144 421q97 -2 198 -2q107 0 188 2l138 -560l13 -67l16 50q6 19 30 88l170 489q98 -2 182 -2q72 0 190 2l-368 -863l-64 -158q-104 2 -176 2q-79 0 -205 -2l-71 289q-20 83 -70 316
q-148 -429 -216 -605q-105 2 -170 2q-75 0 -197 -2z" />
    <glyph glyph-name="x" unicode="x" horiz-adv-x="1301" 
d="M-20 0l228 303l169 232l-314 486q146 -2 251 -2q132 0 217 2l106 -229q10 -21 29 -65q77 132 182 294q89 -2 213 -2q115 0 219 2l-160 -210q-47 -62 -201 -272q92 -159 336 -539q-113 2 -223 2q-134 0 -240 -2q-65 140 -99.5 207t-58.5 123l-32 -55q-15 -25 -46 -74
l-127 -201q-108 2 -210 2q-118 0 -239 -2z" />
    <glyph glyph-name="y" unicode="y" horiz-adv-x="1211" 
d="M5 -457q-31 239 -42 297q63 -30 111.5 -41t83.5 -11q37 0 69.5 10t51.5 24.5t41.5 44.5t33.5 51.5t22 61.5l-188 569l-161 472q149 -2 209 -2q70 0 191 2q19 -77 70.5 -266t74.5 -296q13 -59 25 -150l21 80q10 32 23 73t33 98l65 182l108 279q125 -2 189 -2q56 0 200 2
l-193 -436l-349 -809q-34 -68 -65 -108q-29 -36 -63 -63q-32 -25 -69 -42q-50 -23 -110 -36q-66 -14 -134 -14q-31 0 -82 4.5t-82.5 9t-83.5 16.5z" />
    <glyph glyph-name="z" unicode="z" horiz-adv-x="1072" 
d="M54 0q4 111 7 300q41 36 71 65l403 390q-247 -2 -422 -15q3 46 6 138l2 92v51q120 -2 455 -2q267 0 415 2q-5 -44 -15 -318q-37 -32 -64 -58l-398 -374q97 -3 278 -3q70 0 165 4q-9 -74 -20 -272q-129 2 -440 2q-304 0 -443 -2z" />
    <glyph glyph-name="braceleft" unicode="{" horiz-adv-x="885" 
d="M412 446q25 -12 39 -22.5t27 -29t21 -40.5t11.5 -51.5t3.5 -69.5q0 -63 -15 -240q-4 -52 -4 -93q0 -51 13 -77.5t36 -40.5t58.5 -21t81.5 -7q-2 -19 -3.5 -34.5t-3.5 -58.5l-7 -129q-112 0 -183 8q-125 14 -195 48q-53 26 -85 79q-36 62 -36 147q0 29 6 121l12 182
q7 89 7 118q0 33 -6.5 59t-16 41.5t-27 29t-32.5 20t-35 11.5q6 47 8 103q31 9 56 26q28 18 42 37.5t22 51.5q7 27 10 83q2 20 5 135l8 219q5 72 15 109q9 31 25 58q16 28 40 50q23 22 54 39q33 18 81 30q55 15 130 22q74 6 187 6q-7 -42 -15 -222q-70 -4 -103.5 -14
t-51.5 -25t-29.5 -38.5t-15.5 -64.5t-5 -140.5t-3 -145.5t-7.5 -88t-15 -70.5t-23 -48t-30.5 -32.5t-51 -30z" />
    <glyph glyph-name="bar" unicode="|" horiz-adv-x="1019" 
d="M327 1365h365v-1706h-365v1706z" />
    <glyph glyph-name="braceright" unicode="}" horiz-adv-x="885" 
d="M408 450q-29 14 -41.5 24t-22.5 23.5t-20.5 35.5t-14.5 54t-4 68q0 66 9.5 186t9.5 151q0 44 -11 72t-29 43.5t-53 25t-94 10.5q3 42 7.5 117t4.5 105q105 0 180.5 -7.5t141 -27t100 -49t56.5 -79t22 -115.5q0 -36 -12.5 -207.5t-12.5 -216.5q0 -84 35.5 -118.5
t80.5 -43.5q-6 -47 -8 -104q-27 -7 -49 -20q-31 -20 -46 -39t-23 -49.5t-12 -85.5q-1 -27 -5 -169.5t-8 -191.5q-7 -81 -22 -123.5t-48.5 -79t-81.5 -58.5q-56 -25 -145.5 -37t-233.5 -12q6 42 14 222q60 2 98 12t59 28.5t31.5 44t13.5 88.5t3.5 128.5t2.5 116.5t7.5 95.5
t15.5 72.5t24 48t30.5 33t50.5 29z" />
    <glyph glyph-name="asciitilde" unicode="~" horiz-adv-x="1361" 
d="M360 408l-174 147q17 42 33.5 77t43.5 76.5t50.5 65t53.5 42t64 28.5t70 10q26 0 53 -5t88 -27l158 -61q22 -8 41 -12.5t33 -4.5q39 0 71 29t60 86l175 -146q-36 -87 -61.5 -131.5t-65 -84.5t-88 -60t-106.5 -20q-22 0 -45 3t-56 13.5t-50 17.5t-73 29.5t-89 33t-59 10.5
q-32 0 -62 -24.5t-65 -91.5z" />
    <glyph glyph-name="nbspace" unicode="&#xa0;" horiz-adv-x="512" 
 />
    <glyph glyph-name="exclamdown" unicode="&#xa1;" horiz-adv-x="696" 
d="M156 1021q142 -2 216 -2q52 0 203 2q-9 -106 -19 -348q-130 2 -201 2q-93 0 -214 -2l8 133q3 58 4 109zM159 511q117 -2 205 -2q66 0 164 2l-14 -620l-1 -83v-152q-137 2 -200 2q-88 0 -211 -2q13 147 25 339l18 273q6 82 14 243z" />
    <glyph glyph-name="cent" unicode="&#xa2;" 
d="M1095 493q-32 -184 -48 -307q-71 -13 -98.5 -17t-76.5 -8q-3 -60 -3 -122q0 -65 1 -94q-76 2 -151 2q-69 0 -161 -2l10 225q-60 16 -94 31q-44 18 -84 47t-72.5 71.5t-55 95.5t-36 118.5t-13.5 136.5q0 93 23.5 180.5t63 151t89.5 105t103 65.5q42 19 120 37l-1 132
q0 53 -1 87q96 -2 167 -2q76 0 152 2q-8 -78 -12 -197q83 -9 171 -33q5 -84 27 -316q-127 56 -242 56q-111 0 -176.5 -68t-65.5 -186q0 -73 27 -125.5t78 -79.5t123 -27q45 0 105.5 9t130.5 32z" />
    <glyph glyph-name="sterling" unicode="&#xa3;" 
d="M1287 352q-13 -71 -24 -125t-19.5 -112.5t-18.5 -103.5q-68 -22 -110 -29.5t-94 -7.5q-81 0 -164 15.5t-171.5 40t-129 32t-88.5 7.5q-47 0 -92 -7t-80 -18t-57 -22t-57 -33l5 76q3 38 5 93l5 124q42 13 67 27.5t46 42.5t34.5 70t13.5 86q0 14 -2 38q-123 -3 -229 -9
q13 72 25.5 153.5t22.5 135.5l43 -1q21 0 52 1q-5 13 -14 40l-16 47q-6 21 -9 34t-4.5 28t-1.5 32q0 85 44.5 164t133 133.5t186 70.5t212.5 16q77 0 154 -6.5t198 -28.5q1 -71 21 -337q-106 40 -175 57.5t-132 17.5q-95 0 -154 -39t-59 -103q0 -18 4.5 -36t13 -44.5
t10.5 -38.5h48q120 1 215 3l165 2q-12 -53 -25 -132t-30 -162q-76 2 -127 2q-108 0 -202 -6l-4 -61q-2 -31 -4 -45t-6 -27t-10.5 -27t-25.5 -53q53 -12 86 -17q11 -2 51.5 -6.5t82 -10t53.5 -6.5q22 -1 54 -1q84 0 154 18.5t130 47.5z" />
    <glyph glyph-name="currency" unicode="&#xa4;" 
d="M258 958l-118 122q83 74 183 175l140 -150q106 39 221 39q121 0 233 -44l161 155q90 -101 165 -175l-138 -129q40 -63 53 -122.5t13 -117.5q0 -146 -77 -263l118 -122q-36 -31 -59.5 -53t-124.5 -121l-132 142q-106 -41 -229 -41q-128 0 -242 45l-151 -147
q-69 80 -165 176l129 121q-67 108 -67 239q0 70 20 139t67 132zM676 904q-56 0 -104 -26.5t-71.5 -77.5t-23.5 -112q0 -59 20 -104t65 -72t103 -27q59 0 106 27.5t71 81t24 115.5q0 58 -22 103t-67 68.5t-101 23.5z" />
    <glyph glyph-name="yen" unicode="&#xa5;" 
d="M86 374q11 107 14 225q281 -5 359 -5q-14 26 -91 163q-46 0 -284 -4q11 110 14 225q123 -2 150 -2l-222 389q109 -2 204 -2q99 0 204 2l29 -65q13 -28 35 -74t70 -140l114 -231q97 177 179 310t118 200q111 -2 194 -2q87 0 194 2l-254 -390l177 3q-15 -109 -22 -225
l-291 4q-6 -8 -101 -163l108 1l266 4q-14 -99 -21 -225q-253 5 -394 5l-5 -91q-3 -53 -5 -124l-4 -164q-110 2 -194 2q-88 0 -195 -2q19 162 29 379l-88 -1z" />
    <glyph glyph-name="brokenbar" unicode="&#xa6;" horiz-adv-x="1019" 
d="M327 1365h365v-734h-365v734zM327 314h365v-655h-365v655z" />
    <glyph glyph-name="section" unicode="&#xa7;" horiz-adv-x="1231" 
d="M1057 1317l-2 -33q-1 -12 -3 -63l-5 -137l-1 -42q-97 36 -158 49.5t-110 13.5q-43 0 -70 -14t-41 -32.5t-14 -39.5q0 -13 4 -26t12.5 -25.5t24 -27t27.5 -24t101 -70.5t148 -106t92 -85.5t51.5 -91.5t18.5 -111q0 -99 -51.5 -194t-168.5 -190q32 -36 48 -62t26.5 -63.5
t10.5 -80.5q0 -96 -52.5 -174.5t-149 -124.5t-219.5 -46q-193 0 -457 84q5 106 8 296q111 -50 182.5 -70t127.5 -20q65 0 93.5 25.5t28.5 62.5q0 17 -4.5 29t-16.5 27t-35.5 34.5t-66.5 50t-113 78.5q-62 41 -74 51q-31 24 -66.5 62t-58.5 76.5t-34 79.5t-11 85
q0 96 55 190.5t173 183.5q-33 40 -47.5 66t-24.5 62t-10 77q0 91 51 173.5t142 126.5t238 44q55 0 111.5 -5.5t117 -19.5t172.5 -49zM716 245q29 26 41.5 44t20 41.5t7.5 40.5q0 9 -3.5 21.5t-22.5 49t-32 54t-33 34t-76 53.5q-76 50 -111 74q-38 -25 -58.5 -59.5
t-20.5 -71.5q0 -21 6.5 -40.5t24.5 -43t69 -63.5t106 -77z" />
    <glyph glyph-name="dieresis" unicode="&#xa8;" horiz-adv-x="1024" 
d="M606 1178l3 70q1 23 4 56l3 39l1 34q92 -2 135 -2q41 0 127 2q-2 -34 -8 -199q-72 3 -126 3q-49 0 -139 -3zM219 1178l9 152q2 21 3 47q91 -2 135 -2q41 0 126 2l-8 -199q-71 3 -125 3q-49 0 -140 -3z" />
    <glyph glyph-name="copyright" unicode="&#xa9;" horiz-adv-x="1697" 
d="M884 1386q162 0 306 -44t250 -140t152 -220t46 -269q0 -154 -51 -295t-153.5 -239t-260.5 -149t-329 -51q-159 0 -306 43t-254 130.5t-158.5 218t-51.5 277.5q0 157 57 302.5t165.5 243.5t263.5 145t324 47zM881 1235q-134 0 -256 -36.5t-210.5 -120t-130.5 -195.5
t-42 -235q0 -118 45 -220.5t127 -170t195.5 -97.5t239.5 -30q133 0 252.5 35t204 114t124.5 188t40 232q0 115 -36.5 218t-116.5 177t-194 107.5t-242 33.5zM1127 510q-7 -30 -18 -98t-13 -93q-121 -17 -219 -17q-190 0 -313.5 93.5t-123.5 273.5q0 99 38.5 178.5t110 132
t156 75t174.5 22.5q86 0 210 -22q1 -67 10 -185q-117 28 -189 28q-74 0 -132.5 -28.5t-91 -82.5t-32.5 -117q0 -88 59.5 -140.5t162.5 -52.5q83 0 211 33z" />
    <glyph glyph-name="ordfeminine" unicode="&#xaa;" horiz-adv-x="789" 
d="M133 972l11 60q4 20 6 38t10 69q179 39 309 39q77 0 139 -18t94.5 -54.5t32.5 -100.5q0 -35 -9 -151.5t-14 -307.5q-69 2 -126 2t-131 -2q10 62 22 271q-27 -12 -67.5 -23t-59 -17.5t-32.5 -16t-19.5 -19.5t-5.5 -21q0 -20 16 -35.5t50 -15.5q17 0 31.5 2.5t45.5 13.5
q-20 -54 -44 -145q-57 -9 -106 -9q-78 0 -130 21.5t-80 68.5t-28 94q0 52 33 98t91 73t178 50q79 14 100 26t21 32t-18.5 29.5t-51.5 9.5q-106 0 -268 -61z" />
    <glyph glyph-name="guillemotleft" unicode="&#xab;" horiz-adv-x="1075" 
d="M522 874q-134 -289 -153 -340q33 -104 130 -342q-94 2 -134 2q-37 0 -124 -2q-44 90 -94 180.5t-86 161.5q105 178 195 340q88 -2 127 -2q45 0 139 2zM959 874q-135 -289 -153 -340q33 -104 129 -342q-93 2 -133 2q-37 0 -124 -2q-44 90 -94 180.5t-86 161.5
q105 178 194 340q89 -2 128 -2q45 0 139 2z" />
    <glyph glyph-name="logicalnot" unicode="&#xac;" horiz-adv-x="1019" 
d="M599 0v285h-533v319h887v-604h-354z" />
    <glyph glyph-name="sfthyphen" unicode="&#xad;" horiz-adv-x="547" 
d="M-3 393q12 145 15 277q142 -4 268 -4q128 0 269 4q-12 -129 -15 -277q-142 3 -269 3t-268 -3z" />
    <glyph glyph-name="registered" unicode="&#xae;" horiz-adv-x="1697" 
d="M884 1386q162 0 306 -44t250 -140t152 -220t46 -269q0 -154 -51 -295t-153.5 -239t-260.5 -149t-329 -51q-159 0 -306 43t-254 130.5t-158.5 218t-51.5 277.5q0 157 57 302.5t165.5 243.5t263.5 145t324 47zM881 1235q-134 0 -256 -36.5t-210.5 -120t-130.5 -195.5
t-42 -235q0 -118 45 -220.5t127 -170t195.5 -97.5t239.5 -30q133 0 252.5 35t204 114t124.5 188t40 232q0 115 -36.5 218t-116.5 177t-194 107.5t-242 33.5zM504 315q21 191 28 376t7 372q83 -2 120 -2t102.5 2.5t125.5 2.5q126 0 181 -13.5t90.5 -40.5t52.5 -64.5t17 -85.5
q0 -50 -18.5 -93t-60 -76t-94.5 -51q27 -70 74.5 -167t74.5 -160q-82 2 -134 2q-58 0 -135 -1l-37 117q-8 25 -16 48l-101 262q41 -7 72 -7q37 0 69.5 11t48 34t15.5 48q0 22 -12.5 38.5t-40 23.5t-86.5 7q-26 0 -74 -2q-7 -92 -13 -290t-6 -291q-80 2 -127 2q-53 0 -123 -2
z" />
    <glyph glyph-name="overscore" unicode="&#xaf;" horiz-adv-x="1019" 
d="M-2 1622h1024v-216h-1024v216z" />
    <glyph glyph-name="degree" unicode="&#xb0;" horiz-adv-x="645" 
d="M574 1158q0 -59 -30 -111.5t-81.5 -82t-110.5 -29.5q-60 0 -111.5 30t-81.5 82t-30 111t29.5 111t81.5 81.5t112 29.5q59 0 110.5 -29.5t81.5 -81.5t30 -111zM437 1158q0 36 -25 62.5t-60 26.5q-36 0 -61 -26t-25 -63t25 -63t61 -26q35 0 60 26.5t25 62.5z" />
    <glyph glyph-name="plusminus" unicode="&#xb1;" 
d="M101 726q9 97 13 249q264 -3 448 -3l13 343q50 -2 130 -2q79 0 130 2l-21 -343l280 1l171 2q-10 -106 -13 -249l-230 2l-220 1l-13 -343q-55 3 -129 3q-76 0 -130 -3l20 343l-278 -1zM69 79q9 96 14 249q285 -3 574 -3q290 0 576 3q-9 -106 -13 -249l-575 4z" />
    <glyph glyph-name="twosuperior" unicode="&#xb2;" horiz-adv-x="841" 
d="M77 546q2 33 4 81.5t4 91.5q49 40 94.5 79.5t110.5 103t107 111t54.5 67t15.5 30t3 21.5q0 36 -37 53t-89 17q-42 0 -90 -7.5t-129 -28.5q21 106 32 189q159 27 299 27q150 0 234 -55.5t84 -137.5q0 -22 -5.5 -49.5t-26 -66t-46.5 -72t-61.5 -73.5t-89 -93t-123.5 -115
q108 0 186 1.5t135 7.5q-2 -34 -6.5 -83.5t-7.5 -98.5q-170 2 -316 2q-195 0 -336 -2z" />
    <glyph glyph-name="threesuperior" unicode="&#xb3;" horiz-adv-x="840" 
d="M112 563q-9 133 -17 198q137 -46 245 -46q68 0 108 26.5t40 68.5q0 43 -42 62.5t-129 19.5q-54 0 -107 -7q11 120 14 189q47 -8 95 -8q97 0 128 22t31 52q0 29 -27.5 47.5t-101.5 18.5q-90 0 -200 -24l6 25q3 11 14 65l18 93q126 16 241 16q183 0 262 -52t79 -152
q0 -45 -17 -83.5t-51.5 -68t-97.5 -56.5q160 -38 160 -182q0 -60 -27.5 -110.5t-81.5 -83.5t-123 -47.5t-139 -14.5q-67 0 -131 7t-149 25z" />
    <glyph glyph-name="acute" unicode="&#xb4;" horiz-adv-x="1024" 
d="M369 1164l37 83q14 29 31 69l31 70q102 -2 199 -2q81 0 202 2l-87 -97q-10 -11 -45 -53t-61 -72q-96 2 -158 2q-48 0 -149 -2z" />
    <glyph glyph-name="mu" unicode="&#xb5;" 
d="M134 1021q124 -2 212 -2t193 2q-5 -65 -12 -142.5t-15.5 -197.5t-9.5 -157t-1 -45q0 -106 38.5 -142.5t92.5 -36.5q22 0 44 6q22 7 42 20q18 11 32 28q18 20 30 47q16 33 24 73q10 53 16 136q4 57 10 202l8 209q130 -2 213 -2q92 0 186 2q-20 -225 -33.5 -448.5
t-22.5 -572.5q-113 2 -189 2q-93 0 -187 -2l4 137q-27 -49 -47.5 -74.5t-49.5 -44t-66 -28.5t-77 -10q-27 0 -51 4t-40 11t-24.5 13t-32.5 28l-1 -404q0 -16 2 -100q-107 2 -183 2q-66 0 -191 -2q27 279 56.5 775t29.5 714z" />
    <glyph glyph-name="paragraph" unicode="&#xb6;" 
d="M1115 1186l-27 -488l-54 -1173q-57 3 -99 3t-98 -3l80 1662h-116l-31 -573l-49 -1089q-59 3 -99 3q-42 0 -99 -3l42 825l9 224q-65 2 -93 6q-53 7 -106 25q-68 24 -118 59.5t-86 85.5t-54.5 109.5t-18.5 126.5q0 90 33.5 170.5t95 130.5t129 64t172.5 14l135 -1
q140 -1 261 -1q157 0 388 2q-7 -73 -10 -182q-42 2 -90 2z" />
    <glyph glyph-name="middot" unicode="&#xb7;" horiz-adv-x="424" 
d="M8 505q10 192 16 394q3 0 88.5 -1.5t134.5 -1.5q38 0 190 3l-21 -394l-189 2q-23 0 -219 -2z" />
    <glyph glyph-name="cedilla" unicode="&#xb8;" horiz-adv-x="1024" 
d="M721 -83q-19 -39 -55 -109t-77 -155q-102 2 -192 2q-88 0 -202 -2q101 125 206 270q53 -9 178 -9q75 0 142 3z" />
    <glyph glyph-name="onesuperior" unicode="&#xb9;" horiz-adv-x="840" 
d="M331 546q8 99 19 277.5t15 314.5q-42 -25 -75 -49l-60 -42q3 32 6.5 106.5t3.5 119.5q117 68 146 92q45 -1 123 -1q80 0 135 1q-17 -210 -34 -511q-5 -106 -8 -308q-56 2 -127 2q-82 0 -144 -2z" />
    <glyph glyph-name="ordmasculine" unicode="&#xba;" horiz-adv-x="843" 
d="M450 1178q97 0 182 -36t133.5 -107t48.5 -171q0 -105 -52 -183.5t-139.5 -114t-189.5 -35.5q-103 0 -190 36t-134 111t-47 168q0 98 49.5 174.5t141 117t197.5 40.5zM445 990q-38 0 -66.5 -19t-42.5 -54t-14 -77q0 -61 31.5 -94t79.5 -33q36 0 64 18.5t43 55t15 78.5
q0 60 -30 92.5t-80 32.5z" />
    <glyph glyph-name="guillemotright" unicode="&#xbb;" horiz-adv-x="1079" 
d="M528 874q96 -2 138 -2t128 2q88 -185 168 -340q-37 -63 -95.5 -156t-111.5 -186q-88 2 -123 2q-42 0 -134 -2q117 243 156 342q-16 55 -126 340zM91 874q96 -2 138 -2t128 2q89 -185 168 -340q-37 -63 -95.5 -156t-111.5 -186q-88 2 -123 2q-41 0 -134 -2
q117 243 156 342q-16 55 -126 340z" />
    <glyph glyph-name="onequarter" unicode="&#xbc;" horiz-adv-x="1901" 
d="M331 546q8 99 19 277.5t15 314.5q-42 -25 -75 -49l-60 -42q3 32 6.5 106.5t3.5 119.5q117 68 146 92q45 -1 123 -1q80 0 135 1q-17 -210 -34 -511q-5 -106 -8 -308q-56 2 -127 2q-82 0 -144 -2zM493 0l259 479l460 886q58 -2 97 -2q44 0 106 2l-220 -408l-416 -800
l-75 -157q-50 2 -86 2q-52 0 -125 -2zM1436 0q13 129 15 207q-77 0 -133 -1l-125 -2l-83 -1q1 4 5 90t4 117q158 191 296 409q93 -1 168 -1q79 0 145 1q-10 -121 -16 -248t-6 -182q32 -1 68 -1q41 0 59 2q-3 -61 -3 -154l1 -31q-23 3 -132 3q-5 -69 -5 -170v-38
q-64 2 -125 2q-57 0 -133 -2zM1486 379q8 199 12 261q-25 -41 -46 -71.5t-57 -80.5l-80 -108z" />
    <glyph glyph-name="onehalf" unicode="&#xbd;" horiz-adv-x="1901" 
d="M331 546q8 99 19 277.5t15 314.5q-42 -25 -75 -49l-60 -42q3 32 6.5 106.5t3.5 119.5q117 68 146 92q45 -1 123 -1q80 0 135 1q-17 -210 -34 -511q-5 -106 -8 -308q-56 2 -127 2q-82 0 -144 -2zM493 0l259 479l460 886q58 -2 97 -2q44 0 106 2l-220 -408l-416 -800
l-75 -157q-50 2 -86 2q-52 0 -125 -2zM1110 0q3 33 4.5 81t4.5 91q49 41 94 80.5t110.5 103t107 110.5t54 67t16 30.5t3.5 21.5q0 36 -37 52.5t-89 16.5q-43 0 -90.5 -7.5t-129.5 -27.5q21 106 33 189q158 27 298 27q150 0 234 -55.5t84 -137.5q0 -22 -5.5 -49.5t-25.5 -66
t-46.5 -72t-62 -73.5t-89 -93t-122.5 -115q108 0 186 1.5t135 7.5q-3 -34 -7.5 -83.5t-7.5 -98.5q-170 2 -315 2q-196 0 -337 -2z" />
    <glyph glyph-name="threequarters" unicode="&#xbe;" horiz-adv-x="1901" 
d="M112 563q-9 133 -17 198q137 -46 245 -46q68 0 108 26.5t40 68.5q0 43 -42 62.5t-129 19.5q-54 0 -107 -7q11 120 14 189q47 -8 95 -8q97 0 128 22t31 52q0 29 -27.5 47.5t-101.5 18.5q-90 0 -200 -24l6 25q3 11 14 65l18 93q126 16 241 16q183 0 262 -52t79 -152
q0 -45 -17 -83.5t-51.5 -68t-97.5 -56.5q160 -38 160 -182q0 -60 -27.5 -110.5t-81.5 -83.5t-123 -47.5t-139 -14.5q-67 0 -131 7t-149 25zM493 0l259 479l460 886q58 -2 97 -2q44 0 106 2l-218 -404l-418 -804l-75 -157q-50 2 -86 2q-52 0 -125 -2zM1436 0q12 123 15 207
q-77 0 -133 -1l-125 -2l-83 -1q1 8 5 96t4 111q160 194 296 409q93 -1 168 -1q79 0 145 1q-22 -304 -22 -430q32 -1 68 -1q41 0 59 2q-3 -66 -3 -154l1 -31q-23 3 -132 3q-5 -58 -5 -208q-64 2 -125 2q-56 0 -133 -2zM1486 379q7 173 12 261q-43 -70 -89 -132l-94 -128z" />
    <glyph glyph-name="questiondown" unicode="&#xbf;" horiz-adv-x="1069" 
d="M822 1021l-10 -120l-13 -162q-1 -11 -3 -54q-128 2 -208 2q-87 0 -204 -2q10 114 13 194t7 142q135 -2 202 -2q71 0 216 2zM776 590q-5 -84 -9 -120t-11.5 -62.5t-17.5 -47t-29.5 -46t-49.5 -57.5t-83 -86l-34 -34q-16 -16 -29.5 -33t-20.5 -29.5t-10 -23t-3 -21.5
q0 -51 55 -77t156 -26q140 0 326 60l-31 -156q-5 -27 -12 -66.5t-16 -102.5q-220 -32 -403 -32q-121 0 -219.5 18.5t-172 63.5t-112.5 107t-39 133q0 38 9 76.5t29.5 77t52 79t75.5 85.5q14 14 90 86q32 31 57 58t39.5 51t22.5 50t15 76q101 -3 182 -3q79 0 193 2z" />
    <glyph glyph-name="Agrave" unicode="&#xc0;" horiz-adv-x="1667" 
d="M-79 0l83 144l517 974l55 109q24 48 67 138q176 -2 257 -2q141 0 261 2l146 -417l297 -802l58 -146q-173 2 -210 2q-84 0 -247 -2q-44 165 -127 388h-504q-87 -176 -180 -388q-186 2 -228 2q-76 0 -245 -2zM695 679h311q-116 353 -127 389q-66 -147 -112 -241zM1062 1492
q-104 2 -149 2q-64 0 -158 -2q-29 37 -58.5 75.5t-38.5 49.5l-80 97q125 -2 202 -2q100 0 200 2z" />
    <glyph glyph-name="Aacute" unicode="&#xc1;" horiz-adv-x="1667" 
d="M-79 0l83 144l517 974l55 109q24 48 67 138q176 -2 257 -2q141 0 261 2l146 -417l297 -802l58 -146q-173 2 -210 2q-84 0 -247 -2q-44 165 -127 388h-504q-87 -176 -180 -388q-186 2 -228 2q-76 0 -245 -2zM695 679h311q-116 353 -127 389q-66 -147 -112 -241zM733 1492
l37 83q14 29 31 69l31 70q102 -2 199 -2q81 0 202 2l-87 -97q-10 -11 -45 -53t-61 -72q-96 2 -158 2q-48 0 -149 -2z" />
    <glyph glyph-name="Acircumflex" unicode="&#xc2;" horiz-adv-x="1667" 
d="M-79 0l83 144l517 974l55 109q24 48 67 138q176 -2 257 -2q141 0 261 2l146 -417l297 -802l58 -146q-173 2 -210 2q-84 0 -247 -2q-44 165 -127 388h-504q-87 -176 -180 -388q-186 2 -228 2q-76 0 -245 -2zM695 679h311q-116 353 -127 389q-66 -147 -112 -241zM590 1496
q55 105 109 225q98 -2 215 -2q82 0 197 2q24 -63 96 -225q-67 2 -119 2q-37 0 -114 -2l-66 98l-73 -98q-58 2 -117 2q-68 0 -128 -2z" />
    <glyph glyph-name="Atilde" unicode="&#xc3;" horiz-adv-x="1667" 
d="M-79 0l83 144l517 974l55 109q24 48 67 138q176 -2 257 -2q141 0 261 2l146 -417l297 -802l58 -146q-173 2 -210 2q-84 0 -247 -2q-44 165 -127 388h-504q-87 -176 -180 -388q-186 2 -228 2q-76 0 -245 -2zM695 679h311q-116 353 -127 389q-66 -147 -112 -241zM580 1502
q4 120 40.5 182.5t110.5 62.5q22 0 44.5 -6t37 -13t58.5 -32.5t57 -32t23.5 -9t20.5 -2.5q13 0 24 5t18.5 19t11.5 48q57 -3 84 -3t85 3q0 -117 -41.5 -182t-117.5 -65q-23 0 -44 5.5t-41 16t-64.5 36.5t-61.5 33t-33 7t-28.5 -9.5t-16 -21.5t-6.5 -42q-55 3 -83 3
q-26 0 -78 -3z" />
    <glyph glyph-name="Adieresis" unicode="&#xc4;" horiz-adv-x="1667" 
d="M-79 0l83 144l517 974l55 109q24 48 67 138q176 -2 257 -2q141 0 261 2l146 -417l297 -802l58 -146q-173 2 -210 2q-84 0 -247 -2q-44 165 -127 388h-504q-87 -176 -180 -388q-186 2 -228 2q-76 0 -245 -2zM695 679h311q-116 353 -127 389q-66 -147 -112 -241zM1017 1504
l3 70q1 23 4 56l3 39l1 34q92 -2 135 -2q41 0 127 2q-2 -34 -8 -199q-72 3 -126 3q-49 0 -139 -3zM630 1504l9 152q2 21 3 47q91 -2 135 -2q41 0 126 2l-8 -199q-71 3 -125 3q-49 0 -140 -3z" />
    <glyph glyph-name="Aring" unicode="&#xc5;" horiz-adv-x="1667" 
d="M1110 1654q0 -54 -27.5 -102t-75.5 -75.5t-103 -27.5q-54 0 -102 27.5t-75 75t-27 102.5t27 102.5t75 75t102 27.5q55 0 103 -27.5t75.5 -75t27.5 -102.5zM974 1651q0 30 -21 50.5t-49 20.5q-27 0 -48 -20.5t-21 -50.5q0 -29 21 -49.5t49 -20.5q27 0 48 20.5t21 49.5z
M-79 0l83 144l517 974l55 109q24 48 67 138q176 -2 257 -2q141 0 261 2l146 -417l297 -802l58 -146q-173 2 -210 2q-84 0 -247 -2q-44 165 -127 388h-504q-87 -176 -180 -388q-186 2 -228 2q-76 0 -245 -2zM695 679h311q-116 353 -127 389q-66 -147 -112 -241z" />
    <glyph glyph-name="AE" unicode="&#xc6;" horiz-adv-x="1972" 
d="M-79 0l186 352l434 865q13 27 26 55.5t41 92.5q320 -2 676 -2l393 1l235 1q-12 -157 -18 -291q-142 5 -320 5q-104 0 -324 -7l46 -238q61 -2 252 -2q139 0 239 5l-11 -140q-2 -33 -5 -149q-75 3 -201 3q-130 0 -226 -5l53 -274q173 0 253 3t192 12q-12 -142 -15 -287
q-255 2 -369 2q-193 0 -427 -2l-43 271q-11 66 -26 144h-399q-76 -142 -201 -415q-170 2 -221 2q-74 0 -220 -2zM670 677h276l-72 434q-33 -77 -58 -131z" />
    <glyph glyph-name="Ccedilla" unicode="&#xc7;" horiz-adv-x="1373" 
d="M1282 333q-12 -59 -29 -164.5t-23 -163.5q-214 -31 -382 -31q-162 0 -301.5 40.5t-256 133t-166.5 217.5t-50 280q0 181 67.5 325.5t194 241t277.5 138t312 41.5q148 0 366 -38l2 -84q2 -55 6 -121l7 -114q-117 28 -189.5 38t-134.5 10q-135 0 -243 -54t-170 -157
t-62 -228q0 -114 52 -195.5t140.5 -126t218.5 -44.5q71 0 154.5 11.5t209.5 44.5zM1037 -83q-53 -102 -77 -151l-62 -128q-148 3 -200 3q-27 0 -203 -3q149 197 208 284q66 -6 98 -7t95 -1q42 0 141 3z" />
    <glyph glyph-name="Egrave" unicode="&#xc8;" horiz-adv-x="1350" 
d="M99 0q25 258 36.5 432t23 462.5t11.5 382.5l-1 88q236 -2 571 -2q309 0 545 2l-2 -33q-1 -12 -5 -87l-6 -109q-2 -35 -2 -71q-193 8 -324 8q-144 0 -194.5 -0.5t-157.5 -4.5l-12 -229q118 -3 275 -3q56 0 298 7q-10 -128 -19 -305q-173 2 -266 2q-138 0 -309 -7l-12 -243
h115q51 0 211 3l207 5q46 1 154 8q-12 -148 -20 -306q-244 2 -535 2l-440 -1zM889 1492q-104 2 -149 2q-64 0 -158 -2q-29 37 -58.5 75.5t-38.5 49.5l-80 97q125 -2 202 -2q100 0 200 2z" />
    <glyph glyph-name="Eacute" unicode="&#xc9;" horiz-adv-x="1350" 
d="M99 0q25 258 36.5 432t23 462.5t11.5 382.5l-1 88q236 -2 571 -2q309 0 545 2l-2 -33q-1 -12 -5 -87l-6 -109q-2 -35 -2 -71q-193 8 -324 8q-144 0 -194.5 -0.5t-157.5 -4.5l-12 -229q118 -3 275 -3q56 0 298 7q-10 -128 -19 -305q-173 2 -266 2q-138 0 -309 -7l-12 -243
h115q51 0 211 3l207 5q46 1 154 8q-12 -148 -20 -306q-244 2 -535 2l-440 -1zM555 1492l37 83q14 29 31 69l31 70q102 -2 199 -2q81 0 202 2l-87 -97q-10 -11 -45 -53t-61 -72q-96 2 -158 2q-48 0 -149 -2z" />
    <glyph glyph-name="Ecircumflex" unicode="&#xca;" horiz-adv-x="1350" 
d="M99 0q25 258 36.5 432t23 462.5t11.5 382.5l-1 88q236 -2 571 -2q309 0 545 2l-2 -33q-1 -12 -5 -87l-6 -109q-2 -35 -2 -71q-193 8 -324 8q-144 0 -194.5 -0.5t-157.5 -4.5l-12 -229q118 -3 275 -3q56 0 298 7q-10 -128 -19 -305q-173 2 -266 2q-138 0 -309 -7l-12 -243
h115q51 0 211 3l207 5q46 1 154 8q-12 -148 -20 -306q-244 2 -535 2l-440 -1zM417 1496q55 105 109 225q98 -2 215 -2q82 0 197 2q24 -63 96 -225q-67 2 -119 2q-37 0 -114 -2l-66 98l-73 -98q-58 2 -117 2q-68 0 -128 -2z" />
    <glyph glyph-name="Edieresis" unicode="&#xcb;" horiz-adv-x="1350" 
d="M99 0q25 258 36.5 432t23 462.5t11.5 382.5l-1 88q236 -2 571 -2q309 0 545 2l-2 -33q-1 -12 -5 -87l-6 -109q-2 -35 -2 -71q-193 8 -324 8q-144 0 -194.5 -0.5t-157.5 -4.5l-12 -229q118 -3 275 -3q56 0 298 7q-10 -128 -19 -305q-173 2 -266 2q-138 0 -309 -7l-12 -243
h115q51 0 211 3l207 5q46 1 154 8q-12 -148 -20 -306q-244 2 -535 2l-440 -1zM797 1511l3 70q1 23 4 56l3 39l1 34q92 -2 135 -2q41 0 127 2q-2 -34 -8 -199q-72 3 -126 3q-49 0 -139 -3zM410 1511l9 152q2 21 3 47q91 -2 135 -2q41 0 126 2l-8 -199q-71 3 -125 3
q-49 0 -140 -3z" />
    <glyph glyph-name="Igrave" unicode="&#xcc;" horiz-adv-x="700" 
d="M93 0q58 803 58 1236l-1 129q175 -2 234 -2q27 0 215 2q-18 -225 -29 -426q-14 -280 -20 -523.5t-6 -415.5l-205 2q-60 0 -246 -2zM558 1492q-104 2 -149 2q-64 0 -158 -2q-29 37 -58.5 75.5t-38.5 49.5l-80 97q125 -2 202 -2q100 0 200 2z" />
    <glyph glyph-name="Iacute" unicode="&#xcd;" horiz-adv-x="700" 
d="M104 0q58 803 58 1236l-1 129q175 -2 234 -2q27 0 215 2q-18 -225 -29 -426q-14 -280 -20 -523.5t-6 -415.5l-205 2q-60 0 -246 -2zM228 1492l37 83q14 29 31 69l31 70q102 -2 199 -2q81 0 202 2l-87 -97q-10 -11 -45 -53t-61 -72q-96 2 -158 2q-48 0 -149 -2z" />
    <glyph glyph-name="Icircumflex" unicode="&#xce;" horiz-adv-x="700" 
d="M99 0q58 803 58 1236l-1 129q175 -2 234 -2q27 0 215 2q-18 -225 -29 -426q-14 -280 -20 -523.5t-6 -415.5l-205 2q-60 0 -246 -2zM80 1496q55 105 109 225q98 -2 215 -2q82 0 197 2q24 -63 96 -225q-67 2 -119 2q-37 0 -114 -2l-66 98l-73 -98q-58 2 -117 2
q-68 0 -128 -2z" />
    <glyph glyph-name="Idieresis" unicode="&#xcf;" horiz-adv-x="700" 
d="M123 0q58 803 58 1236l-1 129q175 -2 234 -2q27 0 215 2q-18 -225 -29 -426q-14 -280 -20 -523.5t-6 -415.5l-205 2q-60 0 -246 -2zM481 1511l3 70q1 23 4 56l3 39l1 34q92 -2 135 -2q41 0 127 2q-2 -34 -8 -199q-72 3 -126 3q-49 0 -139 -3zM94 1511l9 152q2 21 3 47
q91 -2 135 -2q41 0 126 2l-8 -199q-71 3 -125 3q-49 0 -140 -3z" />
    <glyph glyph-name="Eth" unicode="&#xd0;" horiz-adv-x="1584" 
d="M4 570q15 127 20 252l129 -3q12 300 12 429v117q116 -3 201 -3q90 0 212.5 4.5t249.5 4.5q137 0 238 -15.5t189 -66t147 -131.5t90 -189.5t31 -223.5q0 -113 -24 -220q-24 -102 -67 -186t-100.5 -144.5t-131.5 -103.5q-55 -32 -112 -50q-55 -18 -151 -29
q-109 -12 -246 -12l-404 3q-57 0 -185 -3q31 313 41 573zM557 818q94 0 244 4q-12 -114 -17 -252q-122 3 -238 4l-12 -273q53 -5 116 -5q97 0 179.5 18t141 76t89 149.5t30.5 186.5q0 130 -45 211t-116.5 111t-190.5 30q-73 0 -170 -6z" />
    <glyph glyph-name="Ntilde" unicode="&#xd1;" horiz-adv-x="1681" 
d="M101 0l20 210l39 712l11 287v156q155 -2 274 -2q85 0 239 2l428 -776l59 -114q11 168 22.5 471t11.5 419q123 -2 197 -2q34 0 196 2l-24 -298l-45 -828l-6 -239q-130 2 -243 2q-94 0 -260 -2q-52 98 -77 142l-168 285q-83 140 -153 268q-46 81 -95 178l-21 -474l-10 -399
q-124 2 -189 2q-55 0 -206 -2zM584 1502q4 120 40.5 182.5t110.5 62.5q22 0 44.5 -6t37 -13t58.5 -32.5t57 -32t23.5 -9t20.5 -2.5q13 0 24 5t18.5 19t11.5 48q57 -3 84 -3t85 3q0 -117 -41.5 -182t-117.5 -65q-23 0 -44 5.5t-41 16t-64.5 36.5t-61.5 33t-33 7t-28.5 -9.5
t-16 -21.5t-6.5 -42q-55 3 -83 3q-26 0 -78 -3z" />
    <glyph glyph-name="Ograve" unicode="&#xd2;" horiz-adv-x="1774" 
d="M926 1391q160 0 308 -43t259 -137.5t166 -217.5t55 -283q0 -168 -60.5 -308.5t-174.5 -238.5t-272 -143.5t-329 -45.5q-169 0 -324 44.5t-269.5 144t-162.5 221.5t-48 271q0 219 101.5 384.5t301 258.5t449.5 93zM908 1090q-115 0 -208 -56.5t-143 -157t-50 -215.5
q0 -106 45.5 -194t138.5 -137.5t197 -49.5q111 0 203.5 55.5t141 156t48.5 210.5q0 107 -45 197.5t-132 140.5t-196 50zM1094 1492q-104 2 -149 2q-64 0 -158 -2q-29 37 -58.5 75.5t-38.5 49.5l-80 97q125 -2 202 -2q100 0 200 2z" />
    <glyph glyph-name="Oacute" unicode="&#xd3;" horiz-adv-x="1774" 
d="M926 1391q160 0 308 -43t259 -137.5t166 -217.5t55 -283q0 -168 -60.5 -308.5t-174.5 -238.5t-272 -143.5t-329 -45.5q-169 0 -324 44.5t-269.5 144t-162.5 221.5t-48 271q0 219 101.5 384.5t301 258.5t449.5 93zM908 1090q-115 0 -208 -56.5t-143 -157t-50 -215.5
q0 -106 45.5 -194t138.5 -137.5t197 -49.5q111 0 203.5 55.5t141 156t48.5 210.5q0 107 -45 197.5t-132 140.5t-196 50zM765 1492l37 83q14 29 31 69l31 70q102 -2 199 -2q81 0 202 2l-87 -97q-10 -11 -45 -53t-61 -72q-96 2 -158 2q-48 0 -149 -2z" />
    <glyph glyph-name="Ocircumflex" unicode="&#xd4;" horiz-adv-x="1774" 
d="M926 1391q160 0 308 -43t259 -137.5t166 -217.5t55 -283q0 -168 -60.5 -308.5t-174.5 -238.5t-272 -143.5t-329 -45.5q-169 0 -324 44.5t-269.5 144t-162.5 221.5t-48 271q0 219 101.5 384.5t301 258.5t449.5 93zM908 1090q-115 0 -208 -56.5t-143 -157t-50 -215.5
q0 -106 45.5 -194t138.5 -137.5t197 -49.5q111 0 203.5 55.5t141 156t48.5 210.5q0 107 -45 197.5t-132 140.5t-196 50zM622 1496q55 105 109 225q98 -2 215 -2q82 0 197 2q24 -63 96 -225q-67 2 -119 2q-37 0 -114 -2l-66 98l-73 -98q-58 2 -117 2q-68 0 -128 -2z" />
    <glyph glyph-name="Otilde" unicode="&#xd5;" horiz-adv-x="1774" 
d="M926 1391q160 0 308 -43t259 -137.5t166 -217.5t55 -283q0 -168 -60.5 -308.5t-174.5 -238.5t-272 -143.5t-329 -45.5q-169 0 -324 44.5t-269.5 144t-162.5 221.5t-48 271q0 219 101.5 384.5t301 258.5t449.5 93zM908 1090q-115 0 -208 -56.5t-143 -157t-50 -215.5
q0 -106 45.5 -194t138.5 -137.5t197 -49.5q111 0 203.5 55.5t141 156t48.5 210.5q0 107 -45 197.5t-132 140.5t-196 50zM629 1502q4 120 40.5 182.5t110.5 62.5q22 0 44.5 -6t37 -13t58.5 -32.5t57 -32t23.5 -9t20.5 -2.5q13 0 24 5t18.5 19t11.5 48q57 -3 84 -3t85 3
q0 -117 -41.5 -182t-117.5 -65q-23 0 -44 5.5t-41 16t-64.5 36.5t-61.5 33t-33 7t-28.5 -9.5t-16 -21.5t-6.5 -42q-55 3 -83 3q-26 0 -78 -3z" />
    <glyph glyph-name="Odieresis" unicode="&#xd6;" horiz-adv-x="1774" 
d="M926 1391q160 0 308 -43t259 -137.5t166 -217.5t55 -283q0 -168 -60.5 -308.5t-174.5 -238.5t-272 -143.5t-329 -45.5q-169 0 -324 44.5t-269.5 144t-162.5 221.5t-48 271q0 219 101.5 384.5t301 258.5t449.5 93zM908 1090q-115 0 -208 -56.5t-143 -157t-50 -215.5
q0 -106 45.5 -194t138.5 -137.5t197 -49.5q111 0 203.5 55.5t141 156t48.5 210.5q0 107 -45 197.5t-132 140.5t-196 50zM1026 1504l3 70q1 23 4 56l3 39l1 34q92 -2 135 -2q41 0 127 2q-2 -34 -8 -199q-72 3 -126 3q-49 0 -139 -3zM639 1504l9 152q2 21 3 47q91 -2 135 -2
q41 0 126 2l-8 -199q-71 3 -125 3q-49 0 -140 -3z" />
    <glyph glyph-name="multiply" unicode="&#xd7;" 
d="M332 208q-62 71 -166 176l339 319l-308 320q62 54 184 175l304 -323l335 324q72 -84 166 -177l-339 -319l308 -319q-70 -62 -185 -176l-303 324z" />
    <glyph glyph-name="Oslash" unicode="&#xd8;" horiz-adv-x="1750" 
d="M1139 1357l109 177q98 -3 181 -3q87 0 180 3l-183 -281q42 -32 74.5 -61.5t68 -77.5t63.5 -112t43 -137t15 -152q0 -161 -55.5 -304.5t-168.5 -242t-263.5 -145.5t-312.5 -47q-51 0 -93 4.5t-60.5 9t-122.5 22.5l-100 -167q-99 3 -173 3q-78 0 -173 -3l171 270
q-36 25 -62 46.5t-57.5 58.5t-58 85.5t-46 106.5t-30.5 123t-11 135q0 201 101.5 375.5t294 261.5t395.5 87q41 0 92.5 -5t181.5 -30zM988 1089q-48 10 -92 10q-121 0 -216 -57.5t-145.5 -160.5t-50.5 -221q0 -65 18 -128t54 -113zM1204 946l-435 -663q52 -13 102 -13
q115 0 209 56.5t144.5 158.5t50.5 221q0 62 -17.5 124.5t-53.5 115.5z" />
    <glyph glyph-name="Ugrave" unicode="&#xd9;" horiz-adv-x="1592" 
d="M160 1365q156 -2 220 -2q80 0 213 2l-30 -425q-9 -120 -13.5 -225t-4.5 -145q0 -76 11 -127t40 -86.5t80.5 -53.5t107.5 -18q48 0 90 11q33 9 59 25q23 15 40 35q21 24 37 60q16 34 24 88q9 55 24 250q13 166 20 304q6 134 11 307q151 -2 238 -2l203 2l-49 -710
q-1 -20 -1 -33q-4 -208 -25.5 -293.5t-71.5 -148.5t-146 -113.5t-218 -71.5t-247 -21q-112 0 -216 16q-96 16 -173 46.5t-134 71.5q-52 38 -80 77.5t-44 94.5q-18 62 -18 133q0 24 2 72.5t9 139.5l13 160q5 63 11 185zM1004 1492q-104 2 -149 2q-64 0 -158 -2
q-29 37 -58.5 75.5t-38.5 49.5l-80 97q125 -2 202 -2q100 0 200 2z" />
    <glyph glyph-name="Uacute" unicode="&#xda;" horiz-adv-x="1592" 
d="M160 1365q156 -2 220 -2q80 0 213 2l-30 -425q-9 -120 -13.5 -225t-4.5 -145q0 -76 11 -127t40 -86.5t80.5 -53.5t107.5 -18q48 0 90 11q33 9 59 25q23 15 40 35q21 24 37 60q16 34 24 88q9 55 24 250q13 166 20 304q6 134 11 307q151 -2 238 -2l203 2l-49 -710
q-1 -20 -1 -33q-4 -208 -25.5 -293.5t-71.5 -148.5t-146 -113.5t-218 -71.5t-247 -21q-112 0 -216 16q-96 16 -173 46.5t-134 71.5q-52 38 -80 77.5t-44 94.5q-18 62 -18 133q0 24 2 72.5t9 139.5l13 160q5 63 11 185zM675 1492l37 83q14 29 31 69l31 70q102 -2 199 -2
q81 0 202 2l-87 -97q-10 -11 -45 -53t-61 -72q-96 2 -158 2q-48 0 -149 -2z" />
    <glyph glyph-name="Ucircumflex" unicode="&#xdb;" horiz-adv-x="1592" 
d="M160 1365q156 -2 220 -2q80 0 213 2l-30 -425q-9 -120 -13.5 -225t-4.5 -145q0 -76 11 -127t40 -86.5t80.5 -53.5t107.5 -18q48 0 90 11q33 9 59 25q23 15 40 35q21 24 37 60q16 34 24 88q9 55 24 250q13 166 20 304q6 134 11 307q151 -2 238 -2l203 2l-49 -710
q-1 -20 -1 -33q-4 -208 -25.5 -293.5t-71.5 -148.5t-146 -113.5t-218 -71.5t-247 -21q-112 0 -216 16q-96 16 -173 46.5t-134 71.5q-52 38 -80 77.5t-44 94.5q-18 62 -18 133q0 24 2 72.5t9 139.5l13 160q5 63 11 185zM533 1496q55 105 109 225q98 -2 215 -2q82 0 197 2
q24 -63 96 -225q-67 2 -119 2q-37 0 -114 -2l-66 98l-73 -98q-58 2 -117 2q-68 0 -128 -2z" />
    <glyph glyph-name="Udieresis" unicode="&#xdc;" horiz-adv-x="1592" 
d="M160 1365q156 -2 220 -2q80 0 213 2l-30 -425q-9 -120 -13.5 -225t-4.5 -145q0 -76 11 -127t40 -86.5t80.5 -53.5t107.5 -18q48 0 90 11q33 9 59 25q23 15 40 35q21 24 37 60q16 34 24 88q9 55 24 250q13 166 20 304q6 134 11 307q151 -2 238 -2l203 2l-49 -710
q-1 -20 -1 -33q-4 -208 -25.5 -293.5t-71.5 -148.5t-146 -113.5t-218 -71.5t-247 -21q-112 0 -216 16q-96 16 -173 46.5t-134 71.5q-52 38 -80 77.5t-44 94.5q-18 62 -18 133q0 24 2 72.5t9 139.5l13 160q5 63 11 185zM920 1511l3 70q1 23 4 56l3 39l1 34q92 -2 135 -2
q41 0 127 2q-2 -34 -8 -199q-72 3 -126 3q-49 0 -139 -3zM533 1511l9 152q2 21 3 47q91 -2 135 -2q41 0 126 2l-8 -199q-71 3 -125 3q-49 0 -140 -3z" />
    <glyph glyph-name="Yacute" unicode="&#xdd;" horiz-adv-x="1321" 
d="M389 0q10 81 24 275t14 274l-458 816q151 -2 249 -2q94 0 225 2q40 -100 108.5 -238.5t111.5 -247.5q115 203 185 316.5t100 169.5q127 -2 244 -2q62 0 225 2l-439 -647q-131 -194 -131 -203l-1 -10v-10l-1 -10l-7 -152q-7 -151 -11 -333q-141 2 -218 2q-79 0 -220 -2z
M539 1492l37 83q14 29 31 69l31 70q102 -2 199 -2q81 0 202 2l-87 -97q-10 -11 -45 -53t-61 -72q-96 2 -158 2q-48 0 -149 -2z" />
    <glyph glyph-name="Thorn" unicode="&#xde;" horiz-adv-x="1307" 
d="M104 0l22 285l25 490l10 338q1 56 1 113l-1 139q110 -2 200 -2q94 0 200 2q-6 -55 -9 -110t-3 -81l117 4l96 1q26 1 52 1q108 0 188.5 -16.5t144.5 -70t98 -132.5t34 -176q0 -102 -38.5 -193t-109 -152.5t-166 -91t-199.5 -29.5q-54 0 -125 12q-9 49 -30.5 137.5
t-35.5 134.5q45 -9 92 -9q100 0 150 48.5t50 119.5q0 34 -12 60t-33.5 42t-47 22t-71.5 6q-14 0 -54.5 -1t-58.5 -3l-55 -4l-7 -120q-3 -47 -7 -197l-8 -352q-2 -82 -2 -215l-199 2q-42 0 -208 -2z" />
    <glyph glyph-name="germandbls" unicode="&#xdf;" horiz-adv-x="1340" 
d="M78 0l16 157q4 40 11 129l26 434q11 240 18 294q11 89 34.5 142t61.5 89q49 47 126 83t164.5 49.5t174.5 13.5q97 0 187 -15.5t151 -58.5t86.5 -100t25.5 -132q0 -51 -11 -95.5t-49.5 -85t-106.5 -69.5q-34 -14 -44.5 -27t-10.5 -29q0 -13 6.5 -28.5t32 -36t57.5 -39.5
q79 -48 137.5 -105t85 -116t26.5 -136t-30 -142.5t-89 -111.5t-135 -68t-149 -22q-41 0 -111.5 7.5t-142.5 23.5q-7 114 -23 292q100 -29 161 -29q50 0 89.5 27t39.5 81q0 46 -31.5 89t-87 91t-73 65t-31.5 41t-20 49t-6 55q0 29 6.5 56.5t20 48.5t28.5 32t41 20.5t37.5 16
t20.5 18.5t14 29t5 38q0 55 -33 80t-87 25q-32 0 -59 -9q-20 -6 -36 -18q-16 -11 -28 -29q-14 -19 -21 -40q-10 -31 -18 -129q-7 -86 -19 -300l-18 -316q-9 -165 -11 -289q-103 2 -204 2q-91 0 -205 -2z" />
    <glyph glyph-name="agrave" unicode="&#xe0;" horiz-adv-x="1240" 
d="M182 730q19 99 24 136.5t16 117.5q288 63 495 63q118 0 216 -26.5t153 -85.5t55 -169q0 -56 -15 -252t-23 -514q-98 2 -195 2q-94 0 -200 -2q14 110 31 454q-38 -18 -59.5 -26t-75.5 -24t-84.5 -27t-53 -28t-32 -35t-9.5 -40q0 -34 27 -58t86 -24q21 0 45 3.5t66 17.5
q-29 -77 -69 -225q-86 -14 -163 -14q-124 0 -206.5 34.5t-127 111.5t-44.5 154q0 47 16.5 92t51.5 88t82 73.5t128.5 57.5t206.5 51q52 10 95.5 21.5t62 20t30 20t16.5 24t5 26.5q0 38 -32 58.5t-94 20.5q-172 0 -425 -97zM856 1164q-104 2 -149 2q-64 0 -158 -2
q-29 37 -58.5 75.5t-38.5 49.5l-80 97q125 -2 202 -2q100 0 200 2z" />
    <glyph glyph-name="aacute" unicode="&#xe1;" horiz-adv-x="1240" 
d="M182 730q19 99 24 136.5t16 117.5q288 63 495 63q118 0 216 -26.5t153 -85.5t55 -169q0 -56 -15 -252t-23 -514q-98 2 -195 2q-94 0 -200 -2q14 110 31 454q-38 -18 -59.5 -26t-75.5 -24t-84.5 -27t-53 -28t-32 -35t-9.5 -40q0 -34 27 -58t86 -24q21 0 45 3.5t66 17.5
q-29 -77 -69 -225q-86 -14 -163 -14q-124 0 -206.5 34.5t-127 111.5t-44.5 154q0 47 16.5 92t51.5 88t82 73.5t128.5 57.5t206.5 51q52 10 95.5 21.5t62 20t30 20t16.5 24t5 26.5q0 38 -32 58.5t-94 20.5q-172 0 -425 -97zM506 1164l37 83q14 29 31 69l31 70q102 -2 199 -2
q81 0 202 2l-87 -97q-10 -11 -45 -53t-61 -72q-96 2 -158 2q-48 0 -149 -2z" />
    <glyph glyph-name="acircumflex" unicode="&#xe2;" horiz-adv-x="1240" 
d="M182 730q19 99 24 136.5t16 117.5q288 63 495 63q118 0 216 -26.5t153 -85.5t55 -169q0 -56 -15 -252t-23 -514q-98 2 -195 2q-94 0 -200 -2q14 110 31 454q-38 -18 -59.5 -26t-75.5 -24t-84.5 -27t-53 -28t-32 -35t-9.5 -40q0 -34 27 -58t86 -24q21 0 45 3.5t66 17.5
q-29 -77 -69 -225q-86 -14 -163 -14q-124 0 -206.5 34.5t-127 111.5t-44.5 154q0 47 16.5 92t51.5 88t82 73.5t128.5 57.5t206.5 51q52 10 95.5 21.5t62 20t30 20t16.5 24t5 26.5q0 38 -32 58.5t-94 20.5q-172 0 -425 -97zM367 1163q55 105 109 225q98 -2 215 -2q82 0 197 2
q24 -63 96 -225q-67 2 -119 2q-37 0 -114 -2l-66 98l-73 -98q-58 2 -117 2q-68 0 -128 -2z" />
    <glyph glyph-name="atilde" unicode="&#xe3;" horiz-adv-x="1240" 
d="M182 730q19 99 24 136.5t16 117.5q288 63 495 63q118 0 216 -26.5t153 -85.5t55 -169q0 -56 -15 -252t-23 -514q-98 2 -195 2q-94 0 -200 -2q14 110 31 454q-38 -18 -59.5 -26t-75.5 -24t-84.5 -27t-53 -28t-32 -35t-9.5 -40q0 -34 27 -58t86 -24q21 0 45 3.5t66 17.5
q-29 -77 -69 -225q-86 -14 -163 -14q-124 0 -206.5 34.5t-127 111.5t-44.5 154q0 47 16.5 92t51.5 88t82 73.5t128.5 57.5t206.5 51q52 10 95.5 21.5t62 20t30 20t16.5 24t5 26.5q0 38 -32 58.5t-94 20.5q-172 0 -425 -97zM381 1167q4 120 40.5 182.5t110.5 62.5
q22 0 44.5 -6t37 -13t58.5 -32.5t57 -32t23.5 -9t20.5 -2.5q13 0 24 5t18.5 19t11.5 48q57 -3 84 -3t85 3q0 -117 -41.5 -182t-117.5 -65q-23 0 -44 5.5t-41 16t-64.5 36.5t-61.5 33t-33 7t-28.5 -9.5t-16 -21.5t-6.5 -42q-55 3 -83 3q-26 0 -78 -3z" />
    <glyph glyph-name="adieresis" unicode="&#xe4;" horiz-adv-x="1240" 
d="M182 730q19 99 24 136.5t16 117.5q288 63 495 63q118 0 216 -26.5t153 -85.5t55 -169q0 -56 -15 -252t-23 -514q-98 2 -195 2q-94 0 -200 -2q14 110 31 454q-38 -18 -59.5 -26t-75.5 -24t-84.5 -27t-53 -28t-32 -35t-9.5 -40q0 -34 27 -58t86 -24q21 0 45 3.5t66 17.5
q-29 -77 -69 -225q-86 -14 -163 -14q-124 0 -206.5 34.5t-127 111.5t-44.5 154q0 47 16.5 92t51.5 88t82 73.5t128.5 57.5t206.5 51q52 10 95.5 21.5t62 20t30 20t16.5 24t5 26.5q0 38 -32 58.5t-94 20.5q-172 0 -425 -97zM742 1178l3 70q1 23 4 56l3 39l1 34q92 -2 135 -2
q41 0 127 2q-2 -34 -8 -199q-72 3 -126 3q-49 0 -139 -3zM355 1178l9 152q2 21 3 47q91 -2 135 -2q41 0 126 2l-8 -199q-71 3 -125 3q-49 0 -140 -3z" />
    <glyph glyph-name="aring" unicode="&#xe5;" horiz-adv-x="1240" 
d="M182 730q19 99 24 136.5t16 117.5q288 63 495 63q118 0 216 -26.5t153 -85.5t55 -169q0 -56 -15 -252t-23 -514q-98 2 -195 2q-94 0 -200 -2q14 110 31 454q-38 -18 -59.5 -26t-75.5 -24t-84.5 -27t-53 -28t-32 -35t-9.5 -40q0 -34 27 -58t86 -24q21 0 45 3.5t66 17.5
q-29 -77 -69 -225q-86 -14 -163 -14q-124 0 -206.5 34.5t-127 111.5t-44.5 154q0 47 16.5 92t51.5 88t82 73.5t128.5 57.5t206.5 51q52 10 95.5 21.5t62 20t30 20t16.5 24t5 26.5q0 38 -32 58.5t-94 20.5q-172 0 -425 -97zM881 1349q0 -53 -26.5 -99.5t-73.5 -73.5t-100 -27
t-99.5 26.5t-73.5 73.5t-27 100t27 99.5t73.5 73.5t99.5 27t100 -27t73.5 -73.5t26.5 -99.5zM750 1346q0 29 -20.5 49t-48.5 20t-48.5 -20t-20.5 -49q0 -28 20.5 -48.5t48.5 -20.5q27 0 48 20t21 49z" />
    <glyph glyph-name="ae" unicode="&#xe6;" horiz-adv-x="1820" 
d="M182 732l17 95q7 40 12 74l12 87q143 33 255.5 46t181.5 13q65 0 120 -8.5t89.5 -21.5t56.5 -28t54 -46q77 59 151.5 81.5t162.5 22.5q126 0 240 -47.5t178 -143t64 -253.5q0 -69 -13 -129h-693q0 -46 5.5 -72.5t18 -51t31.5 -45.5t50.5 -37.5t73 -25t79.5 -8.5
q127 0 353 64q-19 -99 -50 -289q-204 -35 -360 -35q-84 0 -162 14q-68 13 -123.5 36t-103 60t-84.5 86.5t-61 104.5q-20 45 -29 86q-6 32 -8 86q-23 -14 -40 -23.5t-67 -25t-76.5 -27t-47 -26t-31 -33.5t-10.5 -38q0 -34 31.5 -56.5t77.5 -22.5q50 0 127 25
q-27 -98 -57 -225q-80 -21 -193 -21q-134 0 -215 41.5t-121.5 108.5t-40.5 144q0 47 15.5 92.5t46.5 87t71.5 69t86.5 47.5t150.5 47.5t156.5 39t87 23.5t51.5 32t16.5 46q0 32 -25.5 54.5t-97.5 22.5q-74 0 -180.5 -24t-233.5 -73zM1080 624h326q1 24 1 41q0 71 -42 109.5
t-109 38.5q-41 0 -72.5 -14t-52.5 -38.5t-31 -53t-20 -83.5z" />
    <glyph glyph-name="ccedilla" unicode="&#xe7;" horiz-adv-x="1036" 
d="M940 319q-5 -40 -24 -147l-26 -160q-157 -38 -307 -38q-109 0 -191 22q-97 26 -174 92q-79 68 -115 161q-43 109 -43 244q0 124 42 239t124 189.5t182 100t221 25.5q71 0 143 -7.5t178 -32.5l2 -23q3 -36 4.5 -73.5t6.5 -118.5l6 -89q-143 50 -253 50q-79 0 -138.5 -30.5
t-88 -88t-28.5 -133.5q0 -77 25.5 -129t81.5 -78t123 -26q34 0 80.5 7t81 15.5t87.5 28.5zM727 -83q-19 -38 -53 -104t-79 -160q-102 2 -191 2q-88 0 -203 -2q95 116 206 270q53 -9 178 -9q75 0 142 3z" />
    <glyph glyph-name="egrave" unicode="&#xe8;" horiz-adv-x="1212" 
d="M1078 302q-13 -60 -50 -290q-116 -23 -195 -30.5t-160 -7.5q-119 0 -219 16.5t-172.5 58.5t-121.5 104.5t-74.5 148.5t-25.5 177q0 128 51 250.5t131.5 191.5t185.5 98t215 29q114 0 217.5 -26.5t175.5 -92.5t102.5 -149t30.5 -179q0 -57 -13 -127l-701 -1q-1 -16 -1 -29
q0 -108 77 -159t188 -51q66 0 150.5 15.5t208.5 52.5zM463 626h330q1 17 1 29q0 52 -18.5 89t-53 54t-77.5 17q-30 0 -58 -9.5t-50.5 -28t-37.5 -42.5t-22 -46.5t-14 -62.5zM815 1164q-104 2 -149 2q-64 0 -158 -2q-29 37 -58.5 75.5t-38.5 49.5l-80 97q125 -2 202 -2
q100 0 200 2z" />
    <glyph glyph-name="eacute" unicode="&#xe9;" horiz-adv-x="1212" 
d="M1078 302q-13 -60 -50 -290q-116 -23 -195 -30.5t-160 -7.5q-119 0 -219 16.5t-172.5 58.5t-121.5 104.5t-74.5 148.5t-25.5 177q0 128 51 250.5t131.5 191.5t185.5 98t215 29q114 0 217.5 -26.5t175.5 -92.5t102.5 -149t30.5 -179q0 -57 -13 -127l-701 -1q-1 -16 -1 -29
q0 -108 77 -159t188 -51q66 0 150.5 15.5t208.5 52.5zM463 626h330q1 17 1 29q0 52 -18.5 89t-53 54t-77.5 17q-30 0 -58 -9.5t-50.5 -28t-37.5 -42.5t-22 -46.5t-14 -62.5zM470 1164l37 83q14 29 31 69l31 70q102 -2 199 -2q81 0 202 2l-87 -97q-10 -11 -45 -53t-61 -72
q-96 2 -158 2q-48 0 -149 -2z" />
    <glyph glyph-name="ecircumflex" unicode="&#xea;" horiz-adv-x="1212" 
d="M1078 302q-13 -60 -50 -290q-116 -23 -195 -30.5t-160 -7.5q-119 0 -219 16.5t-172.5 58.5t-121.5 104.5t-74.5 148.5t-25.5 177q0 128 51 250.5t131.5 191.5t185.5 98t215 29q114 0 217.5 -26.5t175.5 -92.5t102.5 -149t30.5 -179q0 -57 -13 -127l-701 -1q-1 -16 -1 -29
q0 -108 77 -159t188 -51q66 0 150.5 15.5t208.5 52.5zM463 626h330q1 17 1 29q0 52 -18.5 89t-53 54t-77.5 17q-30 0 -58 -9.5t-50.5 -28t-37.5 -42.5t-22 -46.5t-14 -62.5zM332 1163q55 105 109 225q98 -2 215 -2q82 0 197 2q24 -63 96 -225q-67 2 -119 2q-37 0 -114 -2
l-66 98l-73 -98q-58 2 -117 2q-68 0 -128 -2z" />
    <glyph glyph-name="edieresis" unicode="&#xeb;" horiz-adv-x="1212" 
d="M1078 302q-13 -60 -50 -290q-116 -23 -195 -30.5t-160 -7.5q-119 0 -219 16.5t-172.5 58.5t-121.5 104.5t-74.5 148.5t-25.5 177q0 128 51 250.5t131.5 191.5t185.5 98t215 29q114 0 217.5 -26.5t175.5 -92.5t102.5 -149t30.5 -179q0 -57 -13 -127l-701 -1q-1 -16 -1 -29
q0 -108 77 -159t188 -51q66 0 150.5 15.5t208.5 52.5zM463 626h330q1 17 1 29q0 52 -18.5 89t-53 54t-77.5 17q-30 0 -58 -9.5t-50.5 -28t-37.5 -42.5t-22 -46.5t-14 -62.5zM706 1178l3 70q1 23 4 56l3 39l1 34q92 -2 135 -2q41 0 127 2q-2 -34 -8 -199q-72 3 -126 3
q-49 0 -139 -3zM319 1178l9 152q2 21 3 47q91 -2 135 -2q41 0 126 2l-8 -199q-71 3 -125 3q-49 0 -140 -3z" />
    <glyph glyph-name="igrave" unicode="&#xec;" horiz-adv-x="639" 
d="M84 0q14 122 21 201t13.5 202t11.5 272t8 346q130 -2 208 -2q71 0 204 2q-17 -189 -24.5 -332t-9.5 -303q-4 -284 -4 -386q-119 2 -205 2q-85 0 -223 -2zM524 1164q-104 2 -149 2q-64 0 -158 -2q-29 37 -58.5 75.5t-38.5 49.5l-80 97q125 -2 202 -2q100 0 200 2z" />
    <glyph glyph-name="iacute" unicode="&#xed;" horiz-adv-x="639" 
d="M82 0q14 122 21 201t13.5 202t11.5 272t8 346q130 -2 208 -2q71 0 204 2q-17 -189 -24.5 -332t-9.5 -303q-4 -284 -4 -386q-119 2 -205 2q-85 0 -223 -2zM177 1164l37 83q14 29 31 69l31 70q102 -2 199 -2q81 0 202 2l-87 -97q-10 -11 -45 -53t-61 -72q-96 2 -158 2
q-48 0 -149 -2z" />
    <glyph glyph-name="icircumflex" unicode="&#xee;" horiz-adv-x="639" 
d="M88 0q14 122 21 201t13.5 202t11.5 272t8 346q130 -2 208 -2q71 0 204 2q-17 -189 -24.5 -332t-9.5 -303q-4 -284 -4 -386q-119 2 -205 2q-85 0 -223 -2zM42 1163q55 105 109 225q98 -2 215 -2q82 0 197 2q24 -63 96 -225q-67 2 -119 2q-37 0 -114 -2l-66 98l-73 -98
q-58 2 -117 2q-68 0 -128 -2z" />
    <glyph glyph-name="idieresis" unicode="&#xef;" horiz-adv-x="639" 
d="M110 0q14 122 21 201t13.5 202t11.5 272t8 346q130 -2 208 -2q71 0 204 2q-17 -189 -24.5 -332t-9.5 -303q-4 -284 -4 -386q-119 2 -205 2q-85 0 -223 -2zM442 1179l3 70q1 23 4 56l3 39l1 34q92 -2 135 -2q41 0 127 2q-2 -34 -8 -199q-72 3 -126 3q-49 0 -139 -3z
M55 1179l9 152q2 21 3 47q91 -2 135 -2q41 0 126 2l-8 -199q-71 3 -125 3q-49 0 -140 -3z" />
    <glyph glyph-name="eth" unicode="&#xf0;" horiz-adv-x="1329" 
d="M494 1477l116 56q61 30 119 64l63 -104q3 -6 11 -17l40 22q18 10 36.5 22t39.5 24q59 -128 88 -177q-22 -10 -45 -24t-68 -35q169 -301 269 -456q24 -37 53 -88t41 -110.5t12 -119.5q0 -105 -31.5 -202.5t-111.5 -184.5t-205 -130t-264 -43q-127 0 -244 37t-195.5 108
t-118 170t-39.5 208q0 112 40 212t122.5 174.5t195.5 119.5t226 45q45 0 95 -8q-29 52 -56 92q-24 34 -34 54l-106 -63l-57 121q-12 25 -30 56q17 8 29 15l80 43q-9 14 -17.5 30t-28.5 48t-25 41zM676 753q-64 0 -114 -33t-75.5 -96.5t-25.5 -138.5q0 -110 55 -168.5
t138 -58.5q63 0 113 33.5t75.5 99t25.5 140.5q0 62 -20 112t-65.5 80t-106.5 30z" />
    <glyph glyph-name="ntilde" unicode="&#xf1;" horiz-adv-x="1392" 
d="M78 0q29 227 44.5 501.5t18.5 519.5q120 -2 207 -2q101 0 194 2l-10 -136q33 37 57 58.5t59.5 42t75.5 33.5t87.5 20.5t99.5 7.5q72 0 140.5 -15.5t114.5 -44t77 -71t41 -91.5t10 -101q0 -38 -8 -164l-17 -362q-5 -107 -5 -198q-101 2 -189 2q-119 0 -217 -2
q9 91 19 270.5t10 252.5q0 113 -43.5 157.5t-109.5 44.5q-58 0 -109.5 -38t-79.5 -110.5t-39.5 -238.5t-15.5 -338q-100 2 -195 2q-100 0 -217 -2zM425 1167q4 120 40.5 182.5t110.5 62.5q22 0 44.5 -6t37 -13t58.5 -32.5t57 -32t23.5 -9t20.5 -2.5q13 0 24 5t18.5 19
t11.5 48q57 -3 84 -3t85 3q0 -117 -41.5 -182t-117.5 -65q-23 0 -44 5.5t-41 16t-64.5 36.5t-61.5 33t-33 7t-28.5 -9.5t-16 -21.5t-6.5 -42q-55 3 -83 3q-26 0 -78 -3z" />
    <glyph glyph-name="ograve" unicode="&#xf2;" horiz-adv-x="1329" 
d="M683 1047q124 0 238.5 -38t193.5 -109.5t116.5 -167t37.5 -205.5q0 -107 -33.5 -203.5t-113.5 -181t-203.5 -126.5t-261.5 -42q-127 0 -244 37t-195.5 108t-118 170t-39.5 208t38.5 208t122 178t206.5 121.5t256 42.5zM676 753q-64 0 -114 -33t-75.5 -96.5t-25.5 -138.5
q0 -110 55 -168.5t138 -58.5q63 0 113 33.5t75.5 99t25.5 140.5q0 62 -20 112t-65.5 80t-106.5 30zM867 1164q-104 2 -149 2q-64 0 -158 -2q-29 37 -58.5 75.5t-38.5 49.5l-80 97q125 -2 202 -2q100 0 200 2z" />
    <glyph glyph-name="oacute" unicode="&#xf3;" horiz-adv-x="1329" 
d="M683 1047q124 0 238.5 -38t193.5 -109.5t116.5 -167t37.5 -205.5q0 -107 -33.5 -203.5t-113.5 -181t-203.5 -126.5t-261.5 -42q-127 0 -244 37t-195.5 108t-118 170t-39.5 208t38.5 208t122 178t206.5 121.5t256 42.5zM676 753q-64 0 -114 -33t-75.5 -96.5t-25.5 -138.5
q0 -110 55 -168.5t138 -58.5q63 0 113 33.5t75.5 99t25.5 140.5q0 62 -20 112t-65.5 80t-106.5 30zM522 1164l37 83q14 29 31 69l31 70q102 -2 199 -2q81 0 202 2l-87 -97q-10 -11 -45 -53t-61 -72q-96 2 -158 2q-48 0 -149 -2z" />
    <glyph glyph-name="ocircumflex" unicode="&#xf4;" horiz-adv-x="1329" 
d="M683 1047q124 0 238.5 -38t193.5 -109.5t116.5 -167t37.5 -205.5q0 -107 -33.5 -203.5t-113.5 -181t-203.5 -126.5t-261.5 -42q-127 0 -244 37t-195.5 108t-118 170t-39.5 208t38.5 208t122 178t206.5 121.5t256 42.5zM676 753q-64 0 -114 -33t-75.5 -96.5t-25.5 -138.5
q0 -110 55 -168.5t138 -58.5q63 0 113 33.5t75.5 99t25.5 140.5q0 62 -20 112t-65.5 80t-106.5 30zM384 1163q55 105 109 225q98 -2 215 -2q82 0 197 2q24 -63 96 -225q-67 2 -119 2q-37 0 -114 -2l-66 98l-73 -98q-58 2 -117 2q-68 0 -128 -2z" />
    <glyph glyph-name="otilde" unicode="&#xf5;" horiz-adv-x="1329" 
d="M683 1047q124 0 238.5 -38t193.5 -109.5t116.5 -167t37.5 -205.5q0 -107 -33.5 -203.5t-113.5 -181t-203.5 -126.5t-261.5 -42q-127 0 -244 37t-195.5 108t-118 170t-39.5 208t38.5 208t122 178t206.5 121.5t256 42.5zM676 753q-64 0 -114 -33t-75.5 -96.5t-25.5 -138.5
q0 -110 55 -168.5t138 -58.5q63 0 113 33.5t75.5 99t25.5 140.5q0 62 -20 112t-65.5 80t-106.5 30zM397 1167q4 120 40.5 182.5t110.5 62.5q22 0 44.5 -6t37 -13t58.5 -32.5t57 -32t23.5 -9t20.5 -2.5q13 0 24 5t18.5 19t11.5 48q57 -3 84 -3t85 3q0 -117 -41.5 -182
t-117.5 -65q-23 0 -44 5.5t-41 16t-64.5 36.5t-61.5 33t-33 7t-28.5 -9.5t-16 -21.5t-6.5 -42q-55 3 -83 3q-26 0 -78 -3z" />
    <glyph glyph-name="odieresis" unicode="&#xf6;" horiz-adv-x="1329" 
d="M683 1047q124 0 238.5 -38t193.5 -109.5t116.5 -167t37.5 -205.5q0 -107 -33.5 -203.5t-113.5 -181t-203.5 -126.5t-261.5 -42q-127 0 -244 37t-195.5 108t-118 170t-39.5 208t38.5 208t122 178t206.5 121.5t256 42.5zM676 753q-64 0 -114 -33t-75.5 -96.5t-25.5 -138.5
q0 -110 55 -168.5t138 -58.5q63 0 113 33.5t75.5 99t25.5 140.5q0 62 -20 112t-65.5 80t-106.5 30zM759 1178l3 70q1 23 4 56l3 39l1 34q92 -2 135 -2q41 0 127 2q-2 -34 -8 -199q-72 3 -126 3q-49 0 -139 -3zM372 1178l9 152q2 21 3 47q91 -2 135 -2q41 0 126 2l-8 -199
q-71 3 -125 3q-49 0 -140 -3z" />
    <glyph glyph-name="divide" unicode="&#xf7;" 
d="M545 941l9 134q2 37 5 142q80 -2 143 -2t143 2q-9 -114 -14 -276q-80 3 -143 3t-143 -3zM107 828l575 -4l576 4q-9 -106 -13 -249l-312 2l-263 1l-576 -3q10 106 13 249zM507 189l9 134q2 35 5 142q75 -2 143 -2q69 0 144 2q-10 -113 -15 -276q-74 3 -143 3
q-68 0 -143 -3z" />
    <glyph glyph-name="oslash" unicode="&#xf8;" horiz-adv-x="1321" 
d="M805 1030l60 110q63 -2 163 -2q99 0 162 1l-117 -212q38 -30 62.5 -53.5t47.5 -56t40 -73.5t27.5 -93.5t10.5 -112.5q0 -175 -80.5 -301t-223.5 -195t-282 -69q-58 0 -153 18l-59 -108l-165 2l-166 -2l121 208q-38 31 -62 55t-49.5 61t-43.5 80.5t-28 94.5t-10 109
q0 89 23.5 173t81.5 160t145 125.5t183 74t169 24.5q32 0 64 -4.5t79 -13.5zM670 763q-62 0 -108.5 -31.5t-73.5 -95t-27 -140.5q0 -65 22.5 -118t68.5 -81.5t103 -28.5q58 0 105.5 30.5t73 96.5t25.5 144q0 101 -51 162.5t-138 61.5z" />
    <glyph glyph-name="ugrave" unicode="&#xf9;" horiz-adv-x="1346" 
d="M1208 0q-114 2 -190 2q-94 0 -189 -2l-1 137q-36 -45 -61 -67.5t-54.5 -39.5t-66 -29.5t-84 -19.5t-96.5 -7q-79 0 -149.5 18.5t-124 62.5t-73 100t-19.5 130q0 18 3 56l16 227q7 125 13 277q4 93 4 176q124 -2 211 -2q88 0 194 2l-31 -381q-7 -87 -7.5 -118.5
t-0.5 -42.5q0 -105 42.5 -142t101.5 -37q24 0 48 7t46 20q19 12 35 30q17 19 30 46q16 33 24 71q11 53 17 134q4 59 11 204l8 209q129 -2 212 -2q93 0 187 2q-23 -254 -36 -483t-20 -538zM880 1164q-104 2 -149 2q-64 0 -158 -2q-29 37 -58.5 75.5t-38.5 49.5l-80 97
q125 -2 202 -2q100 0 200 2z" />
    <glyph glyph-name="uacute" unicode="&#xfa;" horiz-adv-x="1346" 
d="M1208 0q-114 2 -190 2q-94 0 -189 -2l-1 137q-36 -45 -61 -67.5t-54.5 -39.5t-66 -29.5t-84 -19.5t-96.5 -7q-79 0 -149.5 18.5t-124 62.5t-73 100t-19.5 130q0 18 3 56l16 227q7 125 13 277q4 93 4 176q124 -2 211 -2q88 0 194 2l-31 -381q-7 -87 -7.5 -118.5
t-0.5 -42.5q0 -105 42.5 -142t101.5 -37q24 0 48 7t46 20q19 12 35 30q17 19 30 46q16 33 24 71q11 53 17 134q4 59 11 204l8 209q129 -2 212 -2q93 0 187 2q-23 -254 -36 -483t-20 -538zM535 1164l37 83q14 29 31 69l31 70q102 -2 199 -2q81 0 202 2l-87 -97
q-10 -11 -45 -53t-61 -72q-96 2 -158 2q-48 0 -149 -2z" />
    <glyph glyph-name="ucircumflex" unicode="&#xfb;" horiz-adv-x="1346" 
d="M1208 0q-114 2 -190 2q-94 0 -189 -2l-1 137q-36 -45 -61 -67.5t-54.5 -39.5t-66 -29.5t-84 -19.5t-96.5 -7q-79 0 -149.5 18.5t-124 62.5t-73 100t-19.5 130q0 18 3 56l16 227q7 125 13 277q4 93 4 176q124 -2 211 -2q88 0 194 2l-31 -381q-7 -87 -7.5 -118.5
t-0.5 -42.5q0 -105 42.5 -142t101.5 -37q24 0 48 7t46 20q19 12 35 30q17 19 30 46q16 33 24 71q11 53 17 134q4 59 11 204l8 209q129 -2 212 -2q93 0 187 2q-23 -254 -36 -483t-20 -538zM397 1163q55 105 109 225q98 -2 215 -2q82 0 197 2q24 -63 96 -225q-67 2 -119 2
q-37 0 -114 -2l-66 98l-73 -98q-58 2 -117 2q-68 0 -128 -2z" />
    <glyph glyph-name="udieresis" unicode="&#xfc;" horiz-adv-x="1346" 
d="M1208 0q-114 2 -190 2q-94 0 -189 -2l-1 137q-36 -45 -61 -67.5t-54.5 -39.5t-66 -29.5t-84 -19.5t-96.5 -7q-79 0 -149.5 18.5t-124 62.5t-73 100t-19.5 130q0 18 3 56l16 227q7 125 13 277q4 93 4 176q124 -2 211 -2q88 0 194 2l-31 -381q-7 -87 -7.5 -118.5
t-0.5 -42.5q0 -105 42.5 -142t101.5 -37q24 0 48 7t46 20q19 12 35 30q17 19 30 46q16 33 24 71q11 53 17 134q4 59 11 204l8 209q129 -2 212 -2q93 0 187 2q-23 -254 -36 -483t-20 -538zM772 1178l3 70q1 23 4 56l3 39l1 34q92 -2 135 -2q41 0 127 2q-2 -34 -8 -199
q-72 3 -126 3q-49 0 -139 -3zM385 1178l9 152q2 21 3 47q91 -2 135 -2q41 0 126 2l-8 -199q-71 3 -125 3q-49 0 -140 -3z" />
    <glyph glyph-name="yacute" unicode="&#xfd;" horiz-adv-x="1211" 
d="M5 -457q-31 239 -42 297q63 -30 111.5 -41t83.5 -11q37 0 69.5 10t51.5 24.5t41.5 44.5t33.5 51.5t22 61.5l-188 569l-161 472q149 -2 209 -2q70 0 191 2q19 -77 70.5 -266t74.5 -296q13 -59 25 -150l21 80q10 32 23 73t33 98l65 182l108 279q125 -2 189 -2q56 0 200 2
l-193 -436l-349 -809q-34 -68 -65 -108q-29 -36 -63 -63q-32 -25 -69 -42q-50 -23 -110 -36q-66 -14 -134 -14q-31 0 -82 4.5t-82.5 9t-83.5 16.5zM463 1164l37 83q14 29 31 69l31 70q102 -2 199 -2q81 0 202 2l-87 -97q-10 -11 -45 -53t-61 -72q-96 2 -158 2q-48 0 -149 -2
z" />
    <glyph glyph-name="thorn" unicode="&#xfe;" horiz-adv-x="1348" 
d="M61 -468l26 311l41 715l23 807q98 -2 198 -2q101 0 198 2q-25 -257 -29 -371q66 30 131.5 43t123.5 13q138 0 264.5 -66.5t188.5 -194t62 -279.5q0 -105 -30 -203.5t-91.5 -177.5t-142.5 -117t-180 -38q-49 0 -101.5 9.5t-99.5 27.5t-78.5 36.5t-78.5 53.5l-11 -279
q-7 -192 -7 -290q-116 2 -199 2q-72 0 -208 -2zM511 740q-5 -41 -7 -64.5t-4.5 -82t-2.5 -80.5q0 -87 25.5 -142t69.5 -84t99 -29q57 0 103 30t74.5 93.5t28.5 146.5q0 108 -56.5 173t-164.5 65q-68 0 -165 -26z" />
    <glyph glyph-name="ydieresis" unicode="&#xff;" horiz-adv-x="1211" 
d="M5 -457q-31 239 -42 297q63 -30 111.5 -41t83.5 -11q37 0 69.5 10t51.5 24.5t41.5 44.5t33.5 51.5t22 61.5l-188 569l-161 472q149 -2 209 -2q70 0 191 2q19 -77 70.5 -266t74.5 -296q13 -59 25 -150l21 80q10 32 23 73t33 98l65 182l108 279q125 -2 189 -2q56 0 200 2
l-193 -436l-349 -809q-34 -68 -65 -108q-29 -36 -63 -63q-32 -25 -69 -42q-50 -23 -110 -36q-66 -14 -134 -14q-31 0 -82 4.5t-82.5 9t-83.5 16.5zM699 1178l3 70q1 23 4 56l3 39l1 34q92 -2 135 -2q41 0 127 2q-2 -34 -8 -199q-72 3 -126 3q-49 0 -139 -3zM312 1178l9 152
q2 21 3 47q91 -2 135 -2q41 0 126 2l-8 -199q-71 3 -125 3q-49 0 -140 -3z" />
    <glyph glyph-name="dotlessi" unicode="&#x131;" horiz-adv-x="639" 
d="M82 0q14 122 21 201t13.5 202t11.5 272t8 346q130 -2 208 -2q71 0 204 2q-17 -189 -24.5 -332t-9.5 -303q-4 -284 -4 -386q-119 2 -205 2q-85 0 -223 -2z" />
    <glyph glyph-name="Lslash" unicode="&#x141;" horiz-adv-x="1200" 
d="M884 1163l-14 -247l-4 -92q-53 -36 -298 -217q-9 -154 -12 -309q172 -3 224 -3q263 0 398 7l-22 -302q-264 2 -502 2q-321 0 -563 -2q26 238 33 371l-150 -118l9 129q3 45 5 92l5 120l154 110l9 179q8 142 10.5 296.5t2.5 185.5q135 -2 241 -2q71 0 203 2
q-18 -244 -27 -434q217 164 298 232z" />
    <glyph glyph-name="lslash" unicode="&#x142;" horiz-adv-x="660" 
d="M-9 302q16 174 23 353l131 92l20 538l1 80q139 -2 209 -2q92 0 202 2l-27 -397q20 15 138 107q-15 -165 -19 -351q-71 -49 -138 -97l-20 -519l-2 -108q-107 2 -194 2l-216 -1l7 75q3 33 6 89l14 241z" />
    <glyph glyph-name="OE" unicode="&#x152;" horiz-adv-x="2188" 
d="M2067 312q-3 -130 -3 -160l1 -152h-443q-293 0 -354.5 -1t-209.5 -7t-226 -6q-128 0 -241.5 21.5t-211 79t-166.5 147t-104 199t-35 226.5q0 126 37 245t108.5 213t184 156.5t238 84t264.5 21.5q30 0 68 -1l387 -12q62 -1 269 -1h488l-16 -301q-122 6 -287 6
q-116 0 -298 -4l-10 -233h80q169 0 233 1t179 5q-10 -160 -14 -293h-57h-196l-240 -6l-11 -240q105 -3 171 -3q224 0 415 15zM1070 294l33 778q-55 8 -92 11t-82 3q-139 0 -231.5 -54t-141.5 -157t-49 -220q0 -108 46.5 -198.5t134.5 -133.5t204 -43q39 0 92 5z" />
    <glyph glyph-name="oe" unicode="&#x153;" horiz-adv-x="1995" 
d="M1868 299q-11 -54 -24 -135.5t-22 -148.5q-164 -29 -230.5 -35t-125.5 -6q-64 0 -121.5 7.5t-102 19t-82.5 31t-63.5 40.5t-60.5 59q-69 -54 -111.5 -80t-89 -42.5t-101 -25.5t-114.5 -9q-170 0 -296.5 67t-195 177t-68.5 267q0 164 74.5 293.5t209.5 199t295 69.5
q59 0 116.5 -10t107.5 -27.5t86.5 -38.5t60.5 -40.5t59 -53.5q30 33 54 55t61.5 44.5t80 37.5t95.5 24t110 9q98 0 189 -29.5t157.5 -92t101 -146.5t34.5 -180q0 -52 -13 -123h-693q0 -49 1 -61q3 -25 15 -52t36.5 -54.5t57 -46t63.5 -26.5q44 -11 95 -11q57 0 124 12
t230 62zM1254 624h327q0 34 -3.5 59t-13.5 47.5t-28.5 39.5t-46.5 27t-61 10q-40 0 -73.5 -14t-54 -38t-30 -51.5t-16.5 -79.5zM672 753q-62 0 -113.5 -30t-79.5 -92t-28 -136q0 -79 23 -128.5t72.5 -79t109.5 -29.5q62 0 114 32.5t77.5 100.5t25.5 144q0 97 -54 157.5
t-147 60.5z" />
    <glyph glyph-name="Scaron" unicode="&#x160;" horiz-adv-x="1132" 
d="M88 21q-13 213 -30 341q112 -50 199.5 -69.5t153.5 -19.5q87 0 138.5 25.5t51.5 75.5q0 17 -5 32.5t-19 35t-40 42.5l-188 164q-66 56 -92 81q-53 51 -82.5 95t-43 89.5t-13.5 96.5q0 61 21.5 119.5t64.5 109.5t114 88t152 50.5t167 13.5q169 0 368 -39q3 -69 7 -126.5
t19 -201.5q-92 37 -168 51.5t-131 14.5q-78 0 -129.5 -29t-51.5 -72q0 -20 8 -39t30 -44.5t58 -56t113 -90.5l72 -57q32 -26 69 -63t64 -73t41.5 -66t21.5 -60.5t7 -65.5q0 -90 -43 -171.5t-122 -134t-173.5 -73.5t-199.5 -21q-162 0 -409 47zM942 1721q-60 -115 -109 -225
q-116 2 -215 2q-61 0 -197 -2q-16 43 -96 225q67 -2 119 -2q37 0 114 2l66 -98l73 98q58 -2 117 -2q68 0 128 2z" />
    <glyph glyph-name="scaron" unicode="&#x161;" horiz-adv-x="989" 
d="M80 19q-4 44 -8 92.5t-13 133.5l-8 72q97 -38 167 -56.5t129 -18.5q49 0 79.5 9t44.5 26t14 35q0 16 -10.5 31.5t-47.5 42.5q-82 60 -144.5 109t-94 87t-48 82t-16.5 91q0 83 47.5 155t140 104.5t225.5 32.5q139 0 355 -36l16 -281q-121 48 -233 48q-79 0 -114.5 -16
t-35.5 -49q0 -11 4 -21t14.5 -21t26 -22.5t75.5 -53.5t94 -69q56 -44 85.5 -81.5t45 -80t15.5 -89.5q0 -71 -34.5 -130.5t-104 -99.5t-150.5 -55.5t-167 -15.5q-58 0 -145.5 10t-203.5 35zM856 1388q-60 -115 -109 -225q-116 2 -215 2q-61 0 -197 -2q-16 43 -96 225
q67 -2 119 -2q37 0 114 2l66 -98l73 98q58 -2 117 -2q68 0 128 2z" />
    <glyph glyph-name="Ydieresis" unicode="&#x178;" horiz-adv-x="1321" 
d="M389 0q10 81 24 275t14 274l-458 816q151 -2 249 -2q94 0 225 2q40 -100 108.5 -238.5t111.5 -247.5q115 203 185 316.5t100 169.5q127 -2 244 -2q62 0 225 2l-439 -647q-131 -194 -131 -203l-1 -10v-10l-1 -10l-7 -152q-7 -151 -11 -333q-141 2 -218 2q-79 0 -220 -2z
M773 1511l3 70q1 23 4 56l3 39l1 34q92 -2 135 -2q41 0 127 2q-2 -34 -8 -199q-72 3 -126 3q-49 0 -139 -3zM386 1511l9 152q2 21 3 47q91 -2 135 -2q41 0 126 2l-8 -199q-71 3 -125 3q-49 0 -140 -3z" />
    <glyph glyph-name="Zcaron" unicode="&#x17d;" horiz-adv-x="1365" 
d="M41 0q12 206 12 304l59 58q12 12 185 199l332 359q58 65 135 155l-79 1l-79 1h-139q-158 0 -334 -11q9 108 9 234q0 24 -2 65q284 -2 603 -2q330 0 569 2q-7 -105 -9 -166l-4 -134l-57 -55q-14 -14 -28 -29l-626 -685l137 -1q49 0 142 1l276 6q31 1 109 5
q-11 -178 -15 -307q-319 2 -579 2h-228l-258 -1zM1052 1721q-60 -115 -109 -225q-116 2 -215 2q-61 0 -197 -2q-16 43 -96 225q67 -2 119 -2q37 0 114 2l66 -98l73 98q58 -2 117 -2q68 0 128 2z" />
    <glyph glyph-name="zcaron" unicode="&#x17e;" horiz-adv-x="1072" 
d="M54 0q4 111 7 300q41 36 71 65l403 390q-247 -2 -422 -15q3 46 6 138l2 92v51q120 -2 455 -2q267 0 415 2q-5 -44 -15 -318q-37 -32 -64 -58l-398 -374q97 -3 278 -3q70 0 165 4q-9 -74 -20 -272q-129 2 -440 2q-304 0 -443 -2zM888 1388q-60 -115 -109 -225
q-116 2 -215 2q-61 0 -197 -2q-16 43 -96 225q67 -2 119 -2q37 0 114 2l66 -98l73 98q58 -2 117 -2q68 0 128 2z" />
    <glyph glyph-name="florin" unicode="&#x192;" 
d="M904 1064h58q156 0 204 3q-11 -35 -36.5 -143.5t-29.5 -132.5q-63 3 -211 3h-42l-123 -591q-23 -110 -36 -156q-25 -86 -55.5 -142.5t-75.5 -93.5t-110 -58q-78 -26 -162 -26q-58 0 -131 11t-137 32q30 124 46 249q62 -25 90 -30t51 -5q35 0 64.5 13t52.5 43.5t37.5 84.5
t34.5 162l95 507h-33q-67 0 -104 -3q36 146 53 276q45 -2 71 -2q45 0 68 -1q17 83 31 139.5t35 101.5t58 83.5t80.5 62t104.5 37.5t129 14q64 0 133.5 -10.5t162.5 -38.5q-25 -106 -34 -243q-106 39 -171 39q-71 0 -109 -38t-59 -147z" />
    <glyph glyph-name="circumflex" unicode="&#x2c6;" horiz-adv-x="1024" 
d="M231 1163q55 105 109 225q98 -2 215 -2q82 0 197 2q24 -63 96 -225q-67 2 -119 2q-37 0 -114 -2l-66 98l-73 -98q-58 2 -117 2q-68 0 -128 -2z" />
    <glyph glyph-name="caron" unicode="&#x2c7;" horiz-adv-x="1024" 
d="M864 1388q-60 -115 -109 -225q-116 2 -215 2q-61 0 -197 -2q-16 43 -96 225q67 -2 119 -2q37 0 114 2l66 -98l73 98q58 -2 117 -2q68 0 128 2z" />
    <glyph glyph-name="macron" unicode="&#x2c9;" horiz-adv-x="1024" 
d="M223 1187q5 82 6 166l116 -4l78 -1h133q144 0 183 0.5t124 4.5q-1 -40 -3 -73.5t-4 -92.5q-236 2 -311 2z" />
    <glyph glyph-name="breve" unicode="&#x2d8;" horiz-adv-x="1024" 
d="M248 1400q39 -2 73 -2t72 2q11 -23 21 -38t27 -27.5t45.5 -20.5t60.5 -8q33 0 61.5 8t45.5 20.5t27 27.5t20 38q39 -2 73 -2t73 2q0 -33 -3 -49q-5 -26 -19.5 -57.5t-40.5 -60.5t-59.5 -48.5t-74.5 -28.5q-49 -13 -103 -13q-53 0 -102 12q-41 10 -75 29.5t-60 48.5
t-42 65q-12 27 -17 52q-3 17 -3 50z" />
    <glyph glyph-name="dotaccent" unicode="&#x2d9;" horiz-adv-x="1024" 
d="M403 1173l4 80q2 28 5 70.5t3 58.5q96 -2 142 -2q44 0 133 2q-3 -58 -8 -209q-81 3 -132 3q-44 0 -147 -3z" />
    <glyph glyph-name="ring" unicode="&#x2da;" horiz-adv-x="1024" 
d="M776 1349q0 -53 -26.5 -99.5t-73.5 -73.5t-100 -27t-99.5 26.5t-73.5 73.5t-27 100t27 99.5t73.5 73.5t99.5 27t100 -27t73.5 -73.5t26.5 -99.5zM645 1346q0 29 -20.5 49t-48.5 20t-48.5 -20t-20.5 -49q0 -28 20.5 -48.5t48.5 -20.5q27 0 48 20t21 49z" />
    <glyph glyph-name="ogonek" unicode="&#x2db;" horiz-adv-x="1024" 
d="M652 2h162q-42 -36 -59 -72.5t-17 -67.5q0 -38 26 -65t72 -27q43 0 100 15q-13 -52 -15.5 -67.5t-11.5 -75.5q-71 -20 -136 -20q-106 0 -161.5 53.5t-55.5 127.5q0 44 20 89.5t76 109.5z" />
    <glyph glyph-name="tilde" unicode="&#x2dc;" horiz-adv-x="1024" 
d="M244 1167q4 120 40.5 182.5t110.5 62.5q22 0 44.5 -6t37 -13t58.5 -32.5t57 -32t23.5 -9t20.5 -2.5q13 0 24 5t18.5 19t11.5 48q57 -3 84 -3t85 3q0 -117 -41.5 -182t-117.5 -65q-23 0 -44 5.5t-41 16t-64.5 36.5t-61.5 33t-33 7t-28.5 -9.5t-16 -21.5t-6.5 -42
q-55 3 -83 3q-26 0 -78 -3z" />
    <glyph glyph-name="hungarumlaut" unicode="&#x2dd;" horiz-adv-x="1024" 
d="M193 1170l90 220q95 -2 162 -2q75 0 165 2l-75 -91q-14 -16 -43.5 -54.5t-57.5 -74.5q-59 3 -124 3q-35 0 -117 -3zM589 1170l49 117l41 103q95 -2 162 -2q75 0 165 2l-176 -220q-59 3 -124 3q-35 0 -117 -3z" />
    <glyph glyph-name="pi" unicode="&#x3c0;" horiz-adv-x="1319" 
d="M189 0v727h-149v256h1238v-256h-149v-727h-322v727h-296v-727h-322z" />
    <glyph glyph-name="endash" unicode="&#x2013;" 
d="M61 393q12 145 15 277q289 -4 598 -4q307 0 597 4q-10 -125 -14 -277q-289 3 -598 3q-308 0 -598 -3z" />
    <glyph glyph-name="emdash" unicode="&#x2014;" horiz-adv-x="1686" 
d="M-2 393l6 108q3 52 5 169l841 -4l842 4l-13 -277l-483 2l-357 1z" />
    <glyph glyph-name="quoteleft" unicode="&#x2018;" horiz-adv-x="473" 
d="M74 975l121 198q16 26 112 192l95 -2q14 0 95 2l-37 -114q-15 -43 -38 -116l-51 -160l-135 2q-20 0 -162 -2z" />
    <glyph glyph-name="quoteright" unicode="&#x2019;" horiz-adv-x="505" 
d="M507 1365l-134 -220q-25 -42 -98 -170l-95 2q-14 0 -96 -2l126 390l135 -2q21 0 162 2z" />
    <glyph glyph-name="quotesinglbase" unicode="&#x201a;" horiz-adv-x="505" 
d="M416 237l-136 -224q-24 -39 -96 -167l-95 3q-21 0 -96 -3l126 391q113 -3 135 -3q41 0 162 3z" />
    <glyph glyph-name="quotedblleft" unicode="&#x201c;" horiz-adv-x="894" 
d="M494 975l121 198q17 26 112 192l95 -2q14 0 95 2l-37 -114q-15 -43 -38 -116l-51 -160l-135 2q-20 0 -162 -2zM74 975l121 198q16 26 112 192l95 -2q14 0 95 2l-37 -114q-15 -43 -38 -116l-51 -160l-135 2q-20 0 -162 -2z" />
    <glyph glyph-name="quotedblright" unicode="&#x201d;" horiz-adv-x="925" 
d="M927 1365l-120 -198q-17 -26 -112 -192l-95 2q-14 0 -96 -2l126 390l135 -2q20 0 162 2zM507 1365l-134 -220q-25 -42 -98 -170l-95 2q-14 0 -96 -2l126 390l135 -2q21 0 162 2z" />
    <glyph glyph-name="quotedblbase" unicode="&#x201e;" horiz-adv-x="872" 
d="M836 237l-136 -224q-23 -39 -96 -167l-95 3q-21 0 -96 -3l126 391q114 -3 135 -3q42 0 162 3zM416 237l-136 -224q-24 -39 -96 -167l-95 3q-21 0 -96 -3l126 391q113 -3 135 -3q41 0 162 3z" />
    <glyph glyph-name="dagger" unicode="&#x2020;" horiz-adv-x="1232" 
d="M837 939l136 1l88 1l93 1q-12 -142 -15 -281l-173 2l-144 1l-51 -1132q-101 2 -182 2q-82 0 -182 -2l58 1132l-146 -1l-173 -2q5 56 9.5 140.5t5.5 140.5l96 -1l95 -1l126 -1l18 426q108 -2 182 -2q75 0 182 2z" />
    <glyph glyph-name="daggerdbl" unicode="&#x2021;" horiz-adv-x="1232" 
d="M837 939l136 1l88 1l93 1q-11 -126 -14 -281l-174 2l-144 1l-19 -416l153 1l93 1l73 1q-5 -55 -9.5 -140.5t-5.5 -140.5l-178 2l-139 1l-19 -441q-101 2 -182 2t-182 -2l24 441l-141 -1l-176 -2q12 143 15 281l96 -1l95 -1l126 -1l19 416l-146 -1l-173 -2q5 50 10 140
t5 141l96 -1l95 -1l126 -1l18 426q107 -2 182 -2q76 0 182 2z" />
    <glyph glyph-name="bullet" unicode="&#x2022;" horiz-adv-x="1361" 
d="M962 696q0 -76 -37.5 -143t-103.5 -105t-140 -38q-75 0 -140.5 38.5t-103.5 105.5t-38 142q0 76 37.5 142.5t103.5 105t143 38.5q73 0 138 -38t103 -104.5t38 -143.5z" />
    <glyph glyph-name="ellipsis" unicode="&#x2026;" horiz-adv-x="1822" 
d="M707 0q9 159 14 362l205 -3q34 0 175 3q-8 -106 -19 -362l-174 2q-19 0 -201 -2zM98 0q8 134 14 362l206 -3q33 0 174 3q-8 -109 -18 -362l-174 2q-19 0 -202 -2zM1316 0q8 154 14 362l205 -3q34 0 175 3q-8 -98 -19 -362l-174 2q-19 0 -201 -2z" />
    <glyph glyph-name="perthousand" unicode="&#x2030;" horiz-adv-x="2682" 
d="M421 1381q100 0 179 -45t121 -137.5t42 -221.5q0 -140 -47.5 -254t-135.5 -166t-200 -52q-78 0 -146 26.5t-114 82t-66 132.5t-20 161q0 125 47 246.5t139 174.5t201 53zM411 1191q-37 0 -67 -36.5t-46 -109.5t-16 -145q0 -105 28 -156.5t75 -51.5q60 0 95 87.5t35 205.5
q0 100 -30 153t-74 53zM456 0l282 521l440 844q63 -2 111 -2q41 0 108 2l-218 -404l-371 -707l-125 -254q-61 2 -105 2q-28 0 -122 -2zM1475 859q99 0 175 -39t123 -129.5t47 -229.5q0 -94 -23 -186.5t-74.5 -162t-126 -99t-161.5 -29.5q-102 0 -178 40.5t-121.5 129.5
t-45.5 235q0 128 48.5 247.5t137.5 171t199 51.5zM1467 668q-40 0 -68.5 -38t-43.5 -106t-15 -144q0 -58 6 -92t18.5 -60t32.5 -41.5t47 -15.5q18 0 34 8t33.5 31.5t31.5 66t21 88t7 97.5q0 98 -27 152t-77 54zM2304 859q101 0 177 -39.5t122.5 -130.5t46.5 -229
q0 -93 -23 -185.5t-74.5 -162t-126 -99t-161.5 -29.5q-103 0 -179 41t-121 130.5t-45 233.5q0 128 48 247.5t137.5 171t198.5 51.5zM2297 668q-40 0 -68.5 -38t-43.5 -106.5t-15 -143.5q0 -59 6 -93t18.5 -59.5t32.5 -41t46 -15.5q19 0 35 8t33.5 31.5t31.5 65.5t21 88t7 99
q0 98 -27.5 151.5t-76.5 53.5z" />
    <glyph glyph-name="quilsinglleft" unicode="&#x2039;" horiz-adv-x="638" 
d="M522 874q-134 -289 -153 -340q33 -104 130 -342q-94 2 -134 2q-37 0 -124 -2q-44 90 -94 180.5t-86 161.5q105 178 195 340q88 -2 127 -2q45 0 139 2z" />
    <glyph glyph-name="quilsinglright" unicode="&#x203a;" horiz-adv-x="642" 
d="M91 874q96 -2 138 -2t128 2q89 -185 168 -340q-37 -63 -95.5 -156t-111.5 -186q-88 2 -123 2q-41 0 -134 -2q117 243 156 342q-16 55 -126 340z" />
    <glyph glyph-name="Euro" unicode="&#x20ac;" horiz-adv-x="1395" 
d="M1350 1055q-203 49 -320 49q-271 0 -420 -193h674l-41 -170h-713q-10 -51 -10 -92v-24h699l-41 -170h-607q57 -93 160.5 -143t229.5 -50q153 0 364 55l-53 -311q-208 -31 -381 -31q-279 0 -483.5 121t-266.5 359h-121l41 170h58v20q0 37 4 96h-103l41 170h101
q84 231 300.5 355.5t506.5 124.5q151 0 366 -37z" />
    <glyph glyph-name="trademark" unicode="&#x2122;" horiz-adv-x="1933" 
d="M839 587l13 104q5 42 14 138l19 221q4 36 10 140l12 175q96 -1 175 -1q71 0 160 1q10 -60 15.5 -84t29.5 -111q34 -123 59 -252q24 78 45.5 141t47.5 131t34.5 92t24.5 83q76 -1 176 -1q76 0 166 1l-14 -319l-4 -180q-3 -129 -3 -196l1 -83q-78 1 -115 1q-52 0 -117 -1
l3 59q2 25 5 115l10 333l-13 -44q-2 -8 -13 -37l-146 -426l-109 1q-39 0 -116 -1q-13 63 -40 179l-71 284q-4 16 -8 38q-6 -54 -17.5 -242t-11.5 -259l-110 1q-37 0 -112 -1zM277 587q31 294 34 598l-246 -6q6 121 6 186q151 -1 391 -1q237 0 364 1l-4 -81q-3 -49 -3 -104
q-115 6 -245 6q-12 -131 -18.5 -311t-6.5 -288l-131 1z" />
    <glyph glyph-name="Omega" unicode="&#x2126;" horiz-adv-x="1361" 
d="M54 0v300h253q-47 30 -80 56t-68 66.5t-60 91t-39 114.5t-14 132q0 169 83 317t226.5 235t325.5 87q178 0 322 -86.5t227.5 -235.5t83.5 -318q0 -67 -14 -131t-39 -115t-59.5 -91t-67 -65.5t-81.5 -56.5h253v-300h-558v276q35 17 57.5 33.5t46 42t46 65.5t38.5 87.5
t22.5 95.5t6.5 97q0 121 -36.5 207t-101.5 139t-147 53q-117 0 -200.5 -110.5t-83.5 -285.5q0 -147 52 -259t164 -165v-276h-558z" />
    <glyph glyph-name="partialdiff" unicode="&#x2202;" horiz-adv-x="1019" 
d="M106 1090l39 266q93 -9 157 -21q90 -18 171 -45q101 -35 181 -85q85 -54 150 -124t108.5 -153t63.5 -174t20 -206q0 -192 -66 -315.5t-177 -186.5t-254 -63q-99 0 -187 33.5t-153.5 102t-98.5 157t-33 180.5q0 119 55 218.5t149.5 154t206.5 54.5q34 0 72 -5t65.5 -14
t46.5 -20t46 -32q-32 58 -54.5 86t-59.5 56.5t-79.5 49t-112 41.5t-123 30t-133.5 15zM684 443q0 51 -23 95t-65 67.5t-87 23.5q-40 0 -84.5 -24t-68.5 -69t-24 -94q0 -50 24 -93.5t65.5 -68.5t86.5 -25t87 25t65.5 68t23.5 95z" />
    <glyph glyph-name="increment" unicode="&#x2206;" horiz-adv-x="1371" 
d="M30 0l475 1365h357l479 -1365h-1311zM469 300h426l-209 701z" />
    <glyph glyph-name="product" unicode="&#x220f;" horiz-adv-x="1365" 
d="M32 1536h1301v-277h-146v-1494h146v-277h-580v277h125v1494h-391v-1494h123v-277h-578v277h149v1494h-149v277z" />
    <glyph glyph-name="summation" unicode="&#x2211;" horiz-adv-x="1361" 
d="M1288 1536v-542h-310l-38 224h-488l491 -677l-488 -735h504l21 235h326v-553h-1240v365l470 687l-470 630v366h1222z" />
    <glyph glyph-name="minus" unicode="&#x2212;" 
d="M107 828l575 -4l576 4q-9 -106 -13 -249l-312 2l-263 1l-576 -3q9 105 13 249z" />
    <glyph glyph-name="fraction" unicode="&#x2215;" horiz-adv-x="224" 
d="M-346 0l259 479l460 886q58 -2 97 -2q44 0 106 2l-218 -404l-418 -804l-75 -157q-50 2 -86 2q-52 0 -125 -2z" />
    <glyph glyph-name="periodcentered" unicode="&#x2219;" horiz-adv-x="424" 
d="M8 505q10 192 16 394q3 0 88.5 -1.5t134.5 -1.5q38 0 190 3l-21 -394l-189 2q-23 0 -219 -2z" />
    <glyph glyph-name="radical" unicode="&#x221a;" horiz-adv-x="1361" 
d="M1363 1693v-286h-327l-340 -1407h-405l-105 497h-188v286h384l46 -193q16 -67 29.5 -151t15.5 -126q7 54 17 116.5t26 149t23.5 120t52.5 214.5l191 780h580z" />
    <glyph glyph-name="infinity" unicode="&#x221e;" horiz-adv-x="1361" 
d="M687 540q-66 -81 -148.5 -127.5t-175.5 -46.5t-172.5 43.5t-118.5 120t-39 169.5q0 94 41 166t118.5 116t167.5 44q99 0 180 -51.5t136 -121.5q56 72 139 122t186 50q95 0 172.5 -44.5t116 -118.5t38.5 -166q0 -97 -41 -170t-117.5 -116t-167.5 -43q-97 0 -177 49
t-138 125zM798 695q41 -58 82 -86.5t84 -28.5q50 0 84.5 33.5t34.5 82.5q0 50 -36 82t-84 32q-40 0 -80 -26t-85 -89zM563 695q-42 60 -82.5 87.5t-83.5 27.5q-49 0 -84 -33t-35 -82q0 -50 36 -82.5t84 -32.5q86 0 165 115z" />
    <glyph glyph-name="integral" unicode="&#x222b;" horiz-adv-x="1020" 
d="M55 -491l56 326q51 -20 91 -20q32 0 58 13t40 32t18.5 38.5t5.5 60.5t1 160v721q0 226 1 256q4 102 26.5 175t81 136.5t135.5 94.5q87 34 204 34q34 0 74.5 -3t116.5 -17l-55 -327q-51 20 -93 20q-30 0 -54.5 -10.5t-41.5 -33.5t-21 -50t-4 -101v-821l-1 -254
q-1 -71 -17 -144.5t-52.5 -128t-94.5 -97.5t-131.5 -61t-158.5 -18q-45 0 -96 5t-89 14z" />
    <glyph glyph-name="approxequal" unicode="&#x2248;" horiz-adv-x="1019" 
d="M187 713l-174 123q17 43 33.5 78t44 76.5t50.5 65t53.5 42t64.5 28t70 9.5q28 0 53.5 -5t81 -24.5t93.5 -34.5l73 -29q18 -7 36.5 -11.5t35.5 -4.5q27 0 50.5 11t40 29t39.5 52l175 -123q-36 -87 -61.5 -131.5t-64.5 -84.5t-88.5 -60.5t-106.5 -20.5q-22 0 -45.5 3.5
t-58 14.5t-52 18t-72 29.5t-87.5 32t-58 9.5q-30 0 -59.5 -19t-66.5 -73zM187 233l-174 124q17 42 33.5 77t44 76.5t51 65.5t53 42t64 28t70.5 10q27 0 53 -5.5t79 -24.5t96 -35l73 -29q18 -7 36.5 -11.5t35.5 -4.5q20 0 40.5 7t40.5 24.5t49 60.5l175 -123
q-36 -87 -61.5 -131.5t-65 -84.5t-88 -60.5t-106.5 -20.5q-23 0 -46.5 3.5t-57 14.5t-54.5 19l-74 30q-52 21 -84 31t-57 10q-30 0 -59.5 -19.5t-66.5 -73.5z" />
    <glyph glyph-name="notequal" unicode="&#x2260;" 
d="M653 1017l100 295q109 -36 250 -72l-80 -223l348 3q-10 -107 -14 -249l-419 3l-50 -142l195 1l266 2q-10 -107 -13 -249l-531 4l-112 -328q-46 16 -124 38.5t-125 33.5l91 255l-168 -1l-182 -2q9 107 13 249l422 -3l50 142l-200 -1l-263 -2q9 106 13 249z" />
    <glyph glyph-name="lessequal" unicode="&#x2264;" horiz-adv-x="1019" 
d="M953 1362v-341l-492 -141l491 -139l1 -340l-887 328v304zM953 347v-319h-887v319h887z" />
    <glyph glyph-name="greaterequal" unicode="&#x2265;" horiz-adv-x="1019" 
d="M66 401l2 340l490 139l-492 141v341l887 -329v-304zM66 28v319h887v-319h-887z" />
    <glyph glyph-name="lozenge" unicode="&#x25ca;" horiz-adv-x="1361" 
d="M681 1419l531 -736l-531 -736l-532 736zM681 1238l-404 -555l404 -554l403 554z" />
    <glyph glyph-name="fi" unicode="&#xf001;" horiz-adv-x="1401" 
d="M132 0q19 192 46 734h-122q3 31 8.5 132t6.5 146h142q-1 40 -1 69q0 93 10 145t35.5 88t71.5 64.5t104 38.5t121 10q140 0 282 -40q3 -159 12 -264q-93 36 -171 36q-54 0 -84.5 -25t-30.5 -92l1 -30h230q-8 -115 -16 -278h-208l-33 -734q-119 2 -204 2q-86 0 -200 -2z
M907 1148q6 119 6 188q0 20 -1 54q121 -2 203 -2q113 0 197 2q-3 -31 -5 -73l-4 -87q-2 -44 -2 -82q-99 2 -191 2q-93 0 -203 -2zM844 0q14 122 20.5 201t13.5 205.5t12 277.5t7 337q131 -2 208 -2q72 0 205 2q-17 -185 -24.5 -328t-9.5 -307q-4 -284 -4 -386q-120 2 -205 2
q-86 0 -223 -2z" />
    <glyph glyph-name="fl" unicode="&#xf002;" horiz-adv-x="1392" 
d="M132 0q19 192 46 734h-122q3 31 8.5 132t6.5 146h142q-1 40 -1 69q0 93 10 145t35.5 88t71.5 64.5t104 38.5t121 10q140 0 282 -40q3 -159 12 -264q-93 36 -171 36q-54 0 -84.5 -25t-30.5 -92l1 -30h230q-8 -115 -16 -278h-208l-33 -734q-119 2 -204 2q-86 0 -200 -2z
M844 0l18 223l39 754l10 388q139 -2 210 -2q91 0 201 2l-22 -291l-38 -766l-8 -308q-107 2 -194 2q-81 0 -216 -2z" />
  </font>
</defs>
</svg>
